<svg width="12" height="13" viewBox="0 0 12 13" fill="none" xmlns="http://www.w3.org/2000/svg">
<path d="M10.0833 1.83332H9.5V0.666656H8.33333V1.83332H3.66667V0.666656H2.5V1.83332H1.91667C1.26917 1.83332 0.755833 2.35832 0.755833 2.99999L0.75 11.1667C0.75 11.8083 1.26917 12.3333 1.91667 12.3333H10.0833C10.725 12.3333 11.25 11.8083 11.25 11.1667V2.99999C11.25 2.35832 10.725 1.83332 10.0833 1.83332ZM10.0833 11.1667H1.91667V5.33332H10.0833V11.1667ZM10.0833 4.16666H1.91667V2.99999H10.0833V4.16666ZM4.25 7.66666H3.08333V6.49999H4.25V7.66666ZM6.58333 7.66666H5.41667V6.49999H6.58333V7.66666ZM8.91667 7.66666H7.75V6.49999H8.91667V7.66666ZM4.25 9.99999H3.08333V8.83332H4.25V9.99999ZM6.58333 9.99999H5.41667V8.83332H6.58333V9.99999ZM8.91667 9.99999H7.75V8.83332H8.91667V9.99999Z" fill="black"/>
</svg>

