<svg width="32" height="33" viewBox="0 0 32 33" fill="none" xmlns="http://www.w3.org/2000/svg">
<path d="M6.93336 4.13639C6.93336 5.73639 5.62426 7.04548 4.02426 7.04548C2.42426 7.04548 1.11517 5.73639 1.11517 4.13639C1.11517 2.53639 2.42426 1.22729 4.02426 1.22729C5.62426 1.22729 6.93336 2.53639 6.93336 4.13639Z" fill="white"/>
<path d="M23.7576 5.15457C23.7576 6.75457 22.4485 8.06367 20.8485 8.06367C19.2485 8.06367 17.9394 6.75457 17.9394 5.15457C17.9394 3.55457 19.2485 2.24548 20.8485 2.24548C22.4485 2.24548 23.7576 3.50609 23.7576 5.15457Z" fill="white"/>
<path d="M31.5152 14.7545C31.3697 14.2697 30.594 13.4939 29.6243 13.1061C28.897 12.8151 27.7333 12.5727 26.4727 13.2515C26.2788 13.3485 26.1333 13.4939 25.9394 13.6394C25.794 13.1545 25.4546 12.6697 24.9697 12.4273L18.8606 8.11212C18.3273 7.82121 17.7455 7.67576 17.1152 7.67576H17.0667C15.2727 7.8697 13.8667 8.98485 12.9455 10.8758L5.57577 8.01515C5.09092 7.82121 4.60608 7.67576 4.07274 7.67576C2.08486 7.62727 0.484863 9.22727 0.484863 11.1667V19.797L0.824257 29.8818C0.872742 30.9 1.69698 31.7242 2.71517 31.7242H2.76365C3.78183 31.7242 4.65456 30.9 4.65456 29.8818L4.75153 26.3909L7.17577 29.9788C7.51517 30.4636 8.09698 30.7545 8.72729 30.7545C9.40608 30.7545 9.98789 30.4151 10.3273 29.8818C10.6667 29.3485 10.7152 28.6212 10.4243 28.0394L6.73941 19.7485L7.4182 13.1061L11.8303 14.3667C11.394 17.1303 11.6364 19.7485 11.6364 19.8455L11.9758 29.8818C12.0243 30.9 12.8485 31.7242 13.8667 31.7242H13.9152C14.9333 31.7242 15.8061 30.9 15.8061 29.8818L15.903 26.3909L18.3273 29.9788C18.6667 30.4636 19.2485 30.7545 19.8788 30.7545C20.5576 30.7545 21.1394 30.4151 21.4788 29.8818C21.8182 29.3485 21.8667 28.6212 21.5758 28.0394L17.8909 19.7485C18.2303 16.8879 18.9576 14.7545 19.9758 13.397L22.8849 15.4333C22.7879 15.4333 22.6909 15.4818 22.594 15.4818C22.4485 15.4818 22.2546 15.5788 22.2061 15.7727C22.1091 15.9182 22.1576 16.1121 22.2546 16.2576C22.6909 16.9364 23.3212 17.3727 24.0485 17.5667C24.2909 17.6152 24.5818 17.6636 24.8243 17.6636V29.9303C24.8243 30.8515 25.6 31.6273 26.5212 31.6273C27.4424 31.6273 28.2182 30.8515 28.2182 29.9303V16.5C28.2182 16.0152 28.6061 15.6273 29.0909 15.5788L31.0303 15.3364C31.1758 15.3364 31.3212 15.2394 31.3697 15.1424C31.5152 15.0455 31.5152 14.9 31.5152 14.7545ZM9.6485 28.4273C9.79395 28.7182 9.74547 29.0576 9.60001 29.3485C9.40608 29.6394 9.11517 29.7848 8.82426 29.7848C8.53335 29.7848 8.24244 29.6394 8.09698 29.397L1.89092 20.2818H6.01214L9.6485 28.4273ZM12.1697 13.4455L7.17577 12.0394L6.06062 11.5545C5.8182 11.4576 5.52729 11.5545 5.43032 11.797C5.33335 12.0394 5.43032 12.3303 5.67274 12.4273L6.49698 12.7667L5.91517 19.3121H1.45456V11.1667C1.45456 9.7606 2.6182 8.59697 4.02426 8.59697C4.46062 8.59697 4.89698 8.69394 5.28486 8.93636C5.33335 8.98485 5.43032 8.98485 5.4788 8.98485L12.897 11.8455C12.9455 11.8455 12.9455 11.8939 12.994 11.8939C13.2849 12.0879 13.4303 12.4758 13.3333 12.8151C13.2849 13.0576 13.0909 13.2515 12.897 13.3485C12.6546 13.5424 12.4121 13.5424 12.1697 13.4455ZM20.8 28.4273C20.9455 28.7182 20.897 29.0576 20.7515 29.3485C20.5576 29.6394 20.2667 29.7848 19.9758 29.7848C19.6849 29.7848 19.394 29.6394 19.2485 29.397L13.0424 20.2818H17.1637L20.8 28.4273ZM19.2 11.603C19.0061 11.4576 18.6667 11.5061 18.5212 11.7C18.3758 11.8939 18.4243 12.2333 18.6182 12.3788L19.2485 12.8151C18.1333 14.2697 17.4061 16.403 17.0182 19.3121H12.6061C12.5576 18.4394 12.5091 16.4515 12.8485 14.4151C13.0424 14.3667 13.1879 14.3182 13.3333 14.2697C13.8182 14.0273 14.1576 13.5909 14.303 13.1061C14.497 12.4758 14.2546 11.797 13.8182 11.3121C14.594 9.71212 15.7091 8.79091 17.1637 8.59697C17.6 8.59697 17.9879 8.69394 18.3758 8.93636L24.4849 13.2515C24.5333 13.2515 24.5333 13.3 24.5333 13.3C24.9212 13.4939 25.1152 13.8818 25.0182 14.3182C24.9697 14.5606 24.7758 14.7545 24.5818 14.8515C24.3879 14.9485 24.1455 14.997 23.903 14.9L19.2 11.603Z" fill="white"/>
</svg>

