<svg width="24" height="24" viewBox="0 0 24 24" fill="none" xmlns="http://www.w3.org/2000/svg">
<path d="M11.5 4.84625V1.84625H12.5V4.84625H11.5ZM7.92125 6.0595L5.63275 3.77125L6.34625 3.05775L8.6345 5.34625L7.92125 6.0595ZM4.5 22C4.35833 22 4.23958 21.9521 4.14375 21.8563C4.04792 21.7604 4 21.6417 4 21.5V14.1538L5.9845 8.5C6.03333 8.341 6.12725 8.21792 6.26625 8.13075C6.40542 8.04359 6.56025 8 6.73075 8H9.923V6.4615H11.4865C11.3045 6.84867 11.1651 7.25 11.0683 7.6655C10.9714 8.08084 10.923 8.51925 10.923 8.98075V9H6.8885L5.27875 13.3845H12.7172C12.8853 13.5795 13.0673 13.7613 13.2635 13.9298C13.4597 14.0984 13.6718 14.25 13.9 14.3845H5V19H19V15.1173C19.1833 15.0801 19.3552 15.0308 19.5155 14.9693C19.6757 14.9078 19.8372 14.8404 20 14.7673V21.5C20 21.6417 19.9521 21.7604 19.8562 21.8563C19.7604 21.9521 19.6417 22 19.5 22H19.2693C19.1276 22 19.0088 21.9521 18.913 21.8563C18.8172 21.7604 18.7693 21.6417 18.7693 21.5V20H5.23075V21.5C5.23075 21.6417 5.18283 21.7604 5.087 21.8563C4.99117 21.9521 4.87242 22 4.73075 22H4.5ZM6.577 17.423H9.26925C9.47625 17.423 9.64983 17.3531 9.79 17.2133C9.93 17.0733 10 16.8998 10 16.693C10 16.4862 9.93 16.3125 9.79 16.172C9.64983 16.0317 9.47625 15.9615 9.26925 15.9615H6.577V17.423ZM17.423 17.423V15.9615H14.7308C14.5237 15.9615 14.3502 16.0315 14.21 16.1715C14.07 16.3113 14 16.4848 14 16.6918C14 16.8986 14.07 17.0722 14.21 17.2125C14.3502 17.3528 14.5237 17.423 14.7308 17.423H17.423ZM16.602 11L19.75 7.85775L19.123 7.23075L16.602 9.7405L15.4923 8.63075L14.8655 9.2635L16.602 11ZM17.3077 4.98075C18.4218 4.98075 19.3669 5.36892 20.1432 6.14525C20.9196 6.92142 21.3078 7.86659 21.3078 8.98075C21.3078 10.0949 20.9196 11.0401 20.1432 11.8163C19.3669 12.5926 18.4218 12.9808 17.3077 12.9808C16.1936 12.9808 15.2483 12.5926 14.472 11.8163C13.6958 11.0401 13.3077 10.0949 13.3077 8.98075C13.3077 7.86659 13.6958 6.92142 14.472 6.14525C15.2483 5.36892 16.1936 4.98075 17.3077 4.98075Z" fill="black"/>
</svg>

