<svg width="24" height="24" viewBox="0 0 24 24" fill="none" xmlns="http://www.w3.org/2000/svg">
<path d="M16.5 21.5L17.5 20.75V16.5H19.5C19.8063 16.5 20.0496 16.4099 20.2298 16.2298C20.4099 16.0496 20.5 15.8063 20.5 15.5V7H21C21.1417 7 21.2604 6.952 21.3563 6.856C21.4521 6.76 21.5 6.64108 21.5 6.49925C21.5 6.35742 21.4521 6.23875 21.3563 6.14325C21.2604 6.04775 21.1417 6 21 6H17.5V3.5H18.5C18.6417 3.5 18.7604 3.452 18.8563 3.356C18.9521 3.26 19 3.14108 19 2.99925C19 2.85742 18.9521 2.73875 18.8563 2.64325C18.7604 2.54775 18.6417 2.5 18.5 2.5H15.5C15.3583 2.5 15.2396 2.548 15.1437 2.644C15.0479 2.74 15 2.85892 15 3.00075C15 3.14258 15.0479 3.26125 15.1437 3.35675C15.2396 3.45225 15.3583 3.5 15.5 3.5H16.5V6H13C12.8583 6 12.7396 6.048 12.6438 6.144C12.5479 6.24 12.5 6.35892 12.5 6.50075C12.5 6.64258 12.5479 6.76125 12.6438 6.85675C12.7396 6.95225 12.8583 7 13 7H13.5V15.5C13.5 15.8063 13.5901 16.0496 13.7702 16.2298C13.9504 16.4099 14.1937 16.5 14.5 16.5H16.5V21.5ZM19.5 15.5H14.5V13.1923H16.75C16.868 13.1923 16.9712 13.148 17.0595 13.0595C17.148 12.9712 17.1922 12.868 17.1922 12.75C17.1922 12.632 17.148 12.5288 17.0595 12.4405C16.9712 12.352 16.868 12.3077 16.75 12.3077H14.5V10.1923H16.75C16.868 10.1923 16.9712 10.148 17.0595 10.0595C17.148 9.97117 17.1922 9.868 17.1922 9.75C17.1922 9.632 17.148 9.52883 17.0595 9.4405C16.9712 9.352 16.868 9.30775 16.75 9.30775H14.5V7H19.5V15.5ZM9.5 21.5C9.80633 21.5 10.0496 21.4099 10.2297 21.2297C10.4099 21.0496 10.5 20.8063 10.5 20.5V13.5C10.5 13.0222 10.3974 12.6267 10.1923 12.3138C9.98708 12.0007 9.79283 11.7404 9.6095 11.5328C9.439 11.3379 9.29483 11.1664 9.177 11.0182C9.059 10.8702 9 10.6975 9 10.5V9.5H9.5C9.64167 9.5 9.76042 9.452 9.85625 9.356C9.95208 9.26 10 9.14108 10 8.99925C10 8.85742 9.95208 8.73875 9.85625 8.64325C9.76042 8.54775 9.64167 8.5 9.5 8.5H4.5C4.35833 8.5 4.23958 8.548 4.14375 8.644C4.04792 8.74 4 8.85892 4 9.00075C4 9.14258 4.04792 9.26125 4.14375 9.35675C4.23958 9.45225 4.35833 9.5 4.5 9.5H5V10.5C5 10.6975 4.93908 10.8732 4.81725 11.027C4.69542 11.1808 4.54733 11.3552 4.373 11.55C4.18967 11.7577 3.99833 12.0167 3.799 12.327C3.59967 12.6372 3.5 13.0258 3.5 13.493V20.5C3.5 20.8063 3.59008 21.0496 3.77025 21.2297C3.95042 21.4099 4.19367 21.5 4.5 21.5H9.5ZM9.5 14.3077H4.5V13.5C4.5 13.173 4.575 12.8987 4.725 12.677C4.875 12.4552 5.0545 12.2295 5.2635 12C5.43767 11.813 5.604 11.6044 5.7625 11.3743C5.92083 11.1439 6 10.8525 6 10.5V9.5H8V10.5C8 10.845 8.07917 11.1326 8.2375 11.3628C8.39583 11.5928 8.56025 11.8033 8.73075 11.9943C8.93975 12.2238 9.12017 12.4503 9.272 12.674C9.424 12.8977 9.5 13.173 9.5 13.5V14.3077ZM9.5 17.3077H4.5V15.1923H9.5V17.3077ZM9.5 20.5H4.5V18.1923H9.5V20.5Z" fill="black"/>
</svg>

