<svg width="24" height="24" viewBox="0 0 24 24" fill="none" xmlns="http://www.w3.org/2000/svg">
<path d="M13.1625 8.91749L19.1625 11.9175C19.2767 11.975 19.4037 12.0024 19.5314 11.9971C19.6591 11.9917 19.7834 11.9538 19.8923 11.8869C20.0013 11.82 20.0914 11.7264 20.154 11.6149C20.2166 11.5035 20.2496 11.3778 20.25 11.25V2.24999C20.2496 2.12214 20.2166 1.99651 20.154 1.88504C20.0914 1.77356 20.0013 1.67994 19.8923 1.61306C19.7834 1.54618 19.6591 1.50827 19.5314 1.50292C19.4037 1.49756 19.2767 1.52496 19.1625 1.58249L13.1625 4.58249C13.0388 4.64481 12.9348 4.74017 12.862 4.85799C12.7892 4.97581 12.7504 5.11149 12.75 5.24999V5.99999H9.75C9.75 5.80108 9.67098 5.61031 9.53033 5.46966C9.38968 5.32901 9.19891 5.24999 9 5.24999H6C5.80109 5.24999 5.61032 5.32901 5.46967 5.46966C5.32902 5.61031 5.25 5.80108 5.25 5.99999V8.24999H4.5C4.30109 8.24999 4.11032 8.32901 3.96967 8.46966C3.82902 8.61031 3.75 8.80108 3.75 8.99999V21.75C3.75 21.9489 3.82902 22.1397 3.96967 22.2803C4.11032 22.421 4.30109 22.5 4.5 22.5H10.5C10.6989 22.5 10.8897 22.421 11.0303 22.2803C11.171 22.1397 11.25 21.9489 11.25 21.75V8.99999C11.25 8.80108 11.171 8.61031 11.0303 8.46966C10.8897 8.32901 10.6989 8.24999 10.5 8.24999H9.75V7.49999H12.75V8.24999C12.7504 8.38849 12.7892 8.52417 12.862 8.64199C12.9348 8.75981 13.0388 8.85516 13.1625 8.91749ZM9.75 21H5.25V9.74999H9.75V21ZM6.75 8.24999V6.74999H8.25V8.24999H6.75ZM14.25 5.71499L18.75 3.46499V10.035L14.25 7.78499V5.71499Z" fill="black"/>
</svg>

