<svg width="22" height="22" viewBox="0 0 22 22" fill="none" xmlns="http://www.w3.org/2000/svg">
<path d="M18.7844 3.17583H17.2815V2.33757C17.2815 1.17893 16.3357 0.233093 15.177 0.233093H3.21559C2.05694 0.233093 1.11111 1.17893 1.11111 2.33757V16.7197C1.11111 17.8784 2.0572 18.8239 3.21559 18.8239H4.71853V19.6625C4.71853 20.8211 5.66436 21.7669 6.82301 21.7669H18.7844C19.9431 21.7669 20.8889 20.8211 20.8889 19.6625V5.28031C20.8889 4.12167 19.9431 3.17583 18.7844 3.17583ZM16.2052 3.17583H6.82301C5.66436 3.17583 4.71853 4.12167 4.71853 5.28031V17.7477H3.21559C2.65147 17.7477 2.18764 17.2838 2.18764 16.7197V2.33757C2.18764 1.77319 2.65121 1.30937 3.21559 1.30937H15.177C15.7414 1.30937 16.2052 1.77319 16.2052 2.33757V3.17583ZM12.5547 8.20383C13.2625 8.20383 13.2625 7.12755 12.5547 7.12755H8.25891C7.55109 7.12755 7.55109 8.20383 8.25891 8.20383H12.5547ZM17.0993 18.1712C17.8072 18.1712 17.8072 17.0949 17.0993 17.0949H8.5081C7.80029 17.0949 7.80029 18.1712 8.5081 18.1712H17.0993ZM17.0993 12.2441C17.8072 12.2441 17.8072 11.1679 17.0993 11.1679H8.5081C7.80029 11.1679 7.80029 12.2441 8.5081 12.2441H17.0993ZM17.0993 14.2197C17.8072 14.2197 17.8072 13.1435 17.0993 13.1435H8.5081C7.80029 13.1435 7.80029 14.2197 8.5081 14.2197H17.0993ZM17.0993 16.1956C17.8072 16.1956 17.8072 15.1193 17.0993 15.1193H8.5081C7.80029 15.1193 7.80029 16.1956 8.5081 16.1956H17.0993ZM12.5547 9.91256C13.2625 9.91256 13.2625 8.83603 12.5547 8.83603H8.25891C7.55109 8.83603 7.55109 9.91256 8.25891 9.91256H12.5547ZM17.3485 6.77156H15.1175C14.8205 6.77156 14.5794 7.01244 14.5794 7.3097V9.73041C14.5794 10.0274 14.8205 10.2685 15.1175 10.2685H17.3485C17.6458 10.2685 17.8867 10.0274 17.8867 9.73041V7.3097C17.8867 7.01244 17.6458 6.77156 17.3485 6.77156ZM15.6556 7.84784H16.8104V9.19201H15.6556V7.84784ZM6.82301 4.25211H18.7844C19.3488 4.25211 19.8124 4.71593 19.8124 5.28031V19.6625C19.8124 20.2268 19.3488 20.6907 18.7844 20.6907H6.82301C6.25863 20.6907 5.7948 20.2268 5.7948 19.6625V5.28031C5.7948 4.71593 6.25863 4.25211 6.82301 4.25211Z" fill="black"/>
</svg>

