<svg width="15" height="14" viewBox="0 0 15 14" fill="none" xmlns="http://www.w3.org/2000/svg">
<path d="M7.50101 6.9214C7.79121 6.9214 8.03932 6.81805 8.24534 6.61136C8.45145 6.40466 8.55451 6.15621 8.55451 5.866C8.55451 5.57579 8.45116 5.32763 8.24446 5.12152C8.03777 4.91551 7.78927 4.8125 7.49896 4.8125C7.20876 4.8125 6.96064 4.91585 6.75463 5.12254C6.54852 5.32924 6.44546 5.57774 6.44546 5.86804C6.44546 6.15825 6.54881 6.40636 6.75551 6.61238C6.9622 6.81839 7.2107 6.9214 7.50101 6.9214ZM7.49998 11.3829C8.64118 10.3613 9.51448 9.38136 10.1199 8.44317C10.7253 7.50497 11.028 6.68325 11.028 5.978C11.028 4.91459 10.6901 4.04036 10.0144 3.35534C9.33875 2.67031 8.5006 2.32779 7.49998 2.32779C6.49937 2.32779 5.66122 2.67031 4.98553 3.35534C4.30983 4.04036 3.97198 4.91459 3.97198 5.978C3.97198 6.68325 4.27469 7.50497 4.88009 8.44317C5.48549 9.38136 6.35879 10.3613 7.49998 11.3829ZM7.49998 12.5472C6.03193 11.2752 4.93108 10.0913 4.19744 8.99573C3.4638 7.90004 3.09698 6.89413 3.09698 5.978C3.09698 4.63186 3.53239 3.54205 4.40321 2.70856C5.27413 1.87508 6.30639 1.45834 7.49998 1.45834C8.69358 1.45834 9.72584 1.87508 10.5968 2.70856C11.4676 3.54205 11.903 4.63186 11.903 5.978C11.903 6.89413 11.5362 7.90004 10.8025 8.99573C10.0689 10.0913 8.96804 11.2752 7.49998 12.5472Z" fill="white"/>
</svg>

