<svg width="32" height="33" viewBox="0 0 32 33" fill="none" xmlns="http://www.w3.org/2000/svg">
<path d="M6.154 28.5C5.54022 28.5 5.02778 28.2944 4.61667 27.8833C4.20556 27.4722 4 26.9598 4 26.346V11.9873C4 11.3735 4.20556 10.8611 4.61667 10.45C5.02778 10.0389 5.54022 9.83333 6.154 9.83333H12V7.98699C12 7.37344 12.2056 6.86111 12.6167 6.44999C13.0278 6.03888 13.5402 5.83333 14.154 5.83333H17.846C18.4598 5.83333 18.9722 6.03888 19.3833 6.44999C19.7944 6.86111 20 7.37344 20 7.98699V9.83333H25.846C26.4598 9.83333 26.9722 10.0389 27.3833 10.45C27.7944 10.8611 28 11.3735 28 11.9873V26.346C28 26.9598 27.7944 27.4722 27.3833 27.8833C26.9722 28.2944 26.4598 28.5 25.846 28.5H6.154ZM6.154 27.1667H25.846C26.0513 27.1667 26.2394 27.0812 26.4103 26.9103C26.5812 26.7394 26.6667 26.5513 26.6667 26.346V11.9873C26.6667 11.782 26.5812 11.5939 26.4103 11.423C26.2394 11.2521 26.0513 11.1667 25.846 11.1667H6.154C5.94867 11.1667 5.76056 11.2521 5.58967 11.423C5.41878 11.5939 5.33333 11.782 5.33333 11.9873V26.346C5.33333 26.5513 5.41878 26.7394 5.58967 26.9103C5.76056 27.0812 5.94867 27.1667 6.154 27.1667ZM13.3333 9.83333H18.6667V7.98699C18.6667 7.78188 18.5812 7.59388 18.4103 7.42299C18.2394 7.25211 18.0513 7.16666 17.846 7.16666H14.154C13.9487 7.16666 13.7606 7.25211 13.5897 7.42299C13.4188 7.59388 13.3333 7.78188 13.3333 7.98699V9.83333ZM15.3333 19.8333V23.8333H16.6667V19.8333H20.6667V18.5H16.6667V14.5H15.3333V18.5H11.3333V19.8333H15.3333Z" fill="white"/>
</svg>

