<svg width="65" height="64" viewBox="0 0 65 64" fill="none" xmlns="http://www.w3.org/2000/svg">
<path d="M42.7424 41.375L36.4999 17.075C36.4874 17.0223 36.4671 16.9718 36.4399 16.925C36.2299 16.55 35.5324 15.7588 33.5374 16.395C33.1252 16.5864 32.7654 16.8746 32.4887 17.235C32.1915 16.8598 31.8099 16.56 31.3749 16.36C29.4599 15.7613 28.7674 16.555 28.5574 16.9238C28.5302 16.9706 28.51 17.0211 28.4974 17.0738L22.2574 41.375L15.4162 48.2163C15.3593 48.2737 15.3143 48.3418 15.2837 48.4167C15.2532 48.4915 15.2376 48.5716 15.238 48.6525C15.2385 48.7333 15.2548 48.8133 15.2861 48.8878C15.3174 48.9624 15.3631 49.03 15.4205 49.0869C15.478 49.1438 15.5461 49.1888 15.6209 49.2193C15.6958 49.2499 15.7759 49.2654 15.8568 49.265C15.9376 49.2646 16.0176 49.2483 16.0921 49.217C16.1667 49.1856 16.2343 49.14 16.2912 49.0825L23.2499 42.125C23.3274 42.0472 23.3826 41.9501 23.4099 41.8438L29.6599 17.485C29.8124 17.3363 30.2937 17.3038 30.9262 17.4963C31.7449 17.8938 31.8887 18.515 31.8887 19.6738V28.5375C31.7326 28.4035 31.5653 28.283 31.3887 28.1775L31.2237 28.0813C30.9226 27.9039 30.5822 27.8039 30.233 27.7904C29.8838 27.7769 29.5367 27.8503 29.2228 28.0039C28.9089 28.1575 28.638 28.3865 28.4344 28.6706C28.2308 28.9546 28.1009 29.2847 28.0562 29.6313L26.5249 41.5675C26.5108 41.6491 26.5134 41.7327 26.5324 41.8132C26.5515 41.8938 26.5866 41.9696 26.6358 42.0363C26.6849 42.1029 26.747 42.1589 26.8184 42.2009C26.8897 42.2429 26.9688 42.27 27.0509 42.2806C27.133 42.2913 27.2164 42.2852 27.2961 42.2627C27.3758 42.2403 27.4501 42.202 27.5146 42.1501C27.579 42.0982 27.6324 42.0337 27.6713 41.9607C27.7102 41.8876 27.734 41.8075 27.7412 41.725L29.2724 29.7888C29.2908 29.6431 29.3452 29.5042 29.4306 29.3848C29.5161 29.2653 29.6299 29.169 29.7619 29.1045C29.8938 29.04 30.0397 29.0094 30.1865 29.0154C30.3332 29.0214 30.4762 29.0638 30.6024 29.1388L30.7687 29.2363C31.1103 29.4374 31.3937 29.724 31.5909 30.0679C31.7882 30.4118 31.8925 30.8011 31.8937 31.1975V42.465C31.8937 46.5538 30.2049 48.305 29.1974 48.9863C27.7449 49.9688 26.4724 51.1813 25.5249 52.1288L22.5649 55.0875C22.508 55.1444 22.4629 55.2119 22.4321 55.2862C22.4014 55.3605 22.3855 55.4402 22.3855 55.5206C22.3855 55.6011 22.4014 55.6807 22.4321 55.755C22.4629 55.8294 22.508 55.8969 22.5649 55.9538C22.6218 56.0106 22.6893 56.0558 22.7636 56.0865C22.838 56.1173 22.9176 56.1332 22.998 56.1332C23.0785 56.1332 23.1581 56.1173 23.2325 56.0865C23.3068 56.0558 23.3743 56.0106 23.4312 55.9538L26.3862 53C27.2924 52.0913 28.5112 50.9313 29.8774 50C30.6674 49.4675 31.8049 48.4013 32.5024 46.4288C33.1974 48.4013 34.3349 49.4675 35.1274 50C36.4937 50.925 37.7124 52.085 38.6199 53L41.5799 55.9588C41.6948 56.0736 41.8506 56.1382 42.013 56.1382C42.1755 56.1382 42.3313 56.0736 42.4462 55.9588C42.561 55.8439 42.6256 55.6881 42.6256 55.5256C42.6256 55.3632 42.561 55.2074 42.4462 55.0925L39.4874 52.1338C38.5387 51.1863 37.2662 49.9738 35.8137 48.9913C34.8074 48.3113 33.1187 46.56 33.1187 42.47V31.2C33.1194 30.8044 33.2228 30.4157 33.4187 30.0719C33.6145 29.7282 33.8962 29.4411 34.2362 29.2388L34.4062 29.1388C34.5325 29.0643 34.6754 29.0224 34.822 29.0168C34.9686 29.0113 35.1143 29.0422 35.2459 29.1069C35.3776 29.1717 35.4911 29.2681 35.5762 29.3875C35.6613 29.507 35.7154 29.6457 35.7337 29.7913L37.2649 41.7275C37.2745 41.8077 37.2999 41.8851 37.3397 41.9554C37.3795 42.0256 37.4329 42.0872 37.4968 42.1365C37.5607 42.1859 37.6338 42.222 37.7118 42.2427C37.7898 42.2635 37.8712 42.2685 37.9512 42.2575C38.1125 42.2363 38.2588 42.1521 38.3582 42.0232C38.4575 41.8944 38.5017 41.7314 38.4812 41.57L36.9499 29.6338C36.9052 29.2874 36.7754 28.9576 36.572 28.6737C36.3686 28.3899 36.0981 28.1608 35.7845 28.0071C35.4709 27.8535 35.1242 27.7799 34.7752 27.7931C34.4263 27.8062 34.086 27.9057 33.7849 28.0825L33.6149 28.1813C33.438 28.2853 33.2706 28.405 33.1149 28.5388V19.6763C33.1149 18.5175 33.2587 17.8963 33.9899 17.5313C34.7024 17.3075 35.1874 17.34 35.3412 17.4875L41.5912 41.8463C41.6185 41.9526 41.6737 42.0497 41.7512 42.1275L48.7099 49.0875C48.7661 49.1477 48.8338 49.1959 48.909 49.2294C48.9841 49.2629 49.0653 49.2809 49.1476 49.2824C49.2299 49.2839 49.3116 49.2688 49.388 49.238C49.4643 49.2072 49.5337 49.1614 49.592 49.1033C49.6502 49.0452 49.6962 48.976 49.7272 48.8997C49.7582 48.8235 49.7735 48.7418 49.7723 48.6595C49.771 48.5772 49.7533 48.496 49.72 48.4207C49.6867 48.3454 49.6387 48.2776 49.5787 48.2213L42.7424 41.375Z" fill="#0A6F69"/>
<path d="M53.1587 28.535C53.1477 28.4077 53.0972 28.287 53.0143 28.1897C52.9314 28.0925 52.8202 28.0235 52.6962 27.9925C52.6437 27.98 47.4762 26.64 46.9137 22.2688C46.3837 18.1438 49.0312 16.5838 49.3812 16.3938L49.4349 16.3663C49.5801 16.2932 49.6904 16.1654 49.7414 16.011C49.7923 15.8566 49.7799 15.6883 49.7068 15.5431C49.6337 15.3979 49.5059 15.2877 49.3516 15.2367C49.1972 15.1857 49.0289 15.1982 48.8837 15.2713L48.8349 15.295C48.4599 15.4838 44.4199 17.3763 41.5974 14.6863C38.9249 12.1438 40.4787 8.88626 40.5462 8.75001C40.6134 8.61487 40.6284 8.45968 40.5882 8.3142C40.548 8.16871 40.4555 8.04318 40.3285 7.96169C40.2014 7.8802 40.0488 7.84849 39.8998 7.87263C39.7508 7.89677 39.616 7.97507 39.5212 8.09251C39.4899 8.12876 36.4599 11.8875 32.4912 11.7488C28.4999 11.8288 25.5099 8.12501 25.4787 8.09126C25.3841 7.97298 25.2489 7.89397 25.0995 7.86948C24.95 7.84499 24.7967 7.87676 24.6693 7.95866C24.5419 8.04056 24.4493 8.16677 24.4095 8.31292C24.3697 8.45907 24.3854 8.61479 24.4537 8.75001C24.4724 8.78376 26.0912 12.125 23.4024 14.6913C20.5812 17.3813 16.6362 15.535 16.1737 15.305L16.1162 15.2763C15.971 15.2032 15.8027 15.1907 15.6483 15.2417C15.494 15.2927 15.3662 15.4029 15.2931 15.5481C15.22 15.6933 15.2075 15.8616 15.2585 16.016C15.3095 16.1704 15.4197 16.2982 15.5649 16.3713C15.5749 16.3713 15.5899 16.385 15.6162 16.3963C15.9662 16.5825 18.6162 18.135 18.0862 22.2713C17.5237 26.6463 12.3562 27.9825 12.3037 27.995C12.1801 28.0262 12.0693 28.0951 11.9866 28.1921C11.904 28.2892 11.8536 28.4095 11.8424 28.5365C11.8313 28.6635 11.86 28.7908 11.9245 28.9007C11.989 29.0107 12.0862 29.0978 12.2024 29.15C16.6124 31.1038 16.5599 35.7975 16.5549 35.9963C16.5516 36.1585 16.6128 36.3154 16.725 36.4326C16.8373 36.5498 16.9915 36.6177 17.1537 36.6213C17.3146 36.6214 17.4694 36.5595 17.5858 36.4485C17.7022 36.3374 17.7713 36.1857 17.7787 36.025C17.7787 35.815 17.8537 31.2538 13.9599 28.7113C15.7812 27.9413 18.8237 26.1188 19.2999 22.4263C19.6049 20.0513 19.0062 18.3675 18.2474 17.2375C19.9974 17.5375 22.3162 17.4188 24.2474 15.58C26.0212 13.89 26.2824 11.925 26.1362 10.4475C27.5349 11.6063 29.7387 12.9763 32.3674 12.9763H32.4924C35.1262 13.03 37.4437 11.625 38.8674 10.4475C38.7212 11.9238 38.9824 13.89 40.7562 15.5813C42.6899 17.4213 45.0062 17.5388 46.7562 17.2388C45.9974 18.3638 45.3987 20.0475 45.7037 22.4275C46.1799 26.12 49.2224 27.9425 51.0437 28.7125C47.1499 31.255 47.2199 35.8163 47.2249 36.0263C47.2292 36.1862 47.2957 36.3382 47.4103 36.4498C47.525 36.5614 47.6787 36.6238 47.8387 36.6238H47.8549C48.0167 36.6195 48.1703 36.5514 48.282 36.4343C48.3937 36.3172 48.4545 36.1606 48.4512 35.9988C48.4512 35.95 48.3749 31.1163 52.8037 29.1538C52.92 29.1005 53.0167 29.0122 53.0803 28.9013C53.144 28.7903 53.1714 28.6623 53.1587 28.535Z" fill="#0A6F69"/>
</svg>

