<svg width="15" height="14" viewBox="0 0 15 14" fill="none" xmlns="http://www.w3.org/2000/svg">
<path d="M4.72913 9.77083H8.52079V8.89583H4.72913V9.77083ZM4.72913 7.4375H10.2708V6.5625H4.72913V7.4375ZM4.72913 5.10416H10.2708V4.22916H4.72913V5.10416ZM3.59615 11.9583C3.30147 11.9583 3.05204 11.8562 2.84788 11.6521C2.64371 11.4479 2.54163 11.1985 2.54163 10.9038V3.09618C2.54163 2.8015 2.64371 2.55208 2.84788 2.34791C3.05204 2.14375 3.30147 2.04166 3.59615 2.04166H11.4038C11.6985 2.04166 11.9479 2.14375 12.152 2.34791C12.3562 2.55208 12.4583 2.8015 12.4583 3.09618V10.9038C12.4583 11.1985 12.3562 11.4479 12.152 11.6521C11.9479 11.8562 11.6985 11.9583 11.4038 11.9583H3.59615ZM3.59615 11.0833H11.4038C11.4487 11.0833 11.4898 11.0646 11.5271 11.0272C11.5646 10.9899 11.5833 10.9487 11.5833 10.9038V3.09618C11.5833 3.05127 11.5646 3.01014 11.5271 2.97281C11.4898 2.93538 11.4487 2.91666 11.4038 2.91666H3.59615C3.55123 2.91666 3.51011 2.93538 3.47277 2.97281C3.43534 3.01014 3.41663 3.05127 3.41663 3.09618V10.9038C3.41663 10.9487 3.43534 10.9899 3.47277 11.0272C3.51011 11.0646 3.55123 11.0833 3.59615 11.0833Z" fill="black" fill-opacity="0.3"/>
</svg>

