<svg width="32" height="33" viewBox="0 0 32 33" fill="none" xmlns="http://www.w3.org/2000/svg">
<path d="M8.66666 8.24365C8.05288 8.24365 7.52344 8.02099 7.07833 7.57565C6.63299 7.13032 6.41033 6.60087 6.41033 5.98732C6.41033 5.37354 6.63299 4.84399 7.07833 4.39865C7.52344 3.95332 8.05288 3.73065 8.66666 3.73065C9.28044 3.73065 9.80988 3.95332 10.255 4.39865C10.7003 4.84399 10.923 5.37354 10.923 5.98732C10.923 6.60087 10.7003 7.13032 10.255 7.57565C9.80988 8.02099 9.28044 8.24365 8.66666 8.24365ZM6.46166 29.1667V20.3973H4.10266V12.5513C4.10266 11.9547 4.31244 11.4465 4.73199 11.027C5.15177 10.6072 5.65988 10.3973 6.25633 10.3973H11.077C11.6734 10.3973 12.1816 10.6072 12.6013 11.027C13.0209 11.4465 13.2307 11.9547 13.2307 12.5513V15.9207C12.1213 16.6351 11.1944 17.6351 10.45 18.9207C9.70555 20.206 9.33333 21.6213 9.33333 23.1667C9.33333 24.194 9.49399 25.1534 9.81533 26.045C10.1367 26.9363 10.5401 27.676 11.0257 28.264V29.1667H6.46166ZM18.0513 29.218C16.3949 29.218 14.9722 28.6235 13.7833 27.4347C12.5944 26.2458 12 24.8231 12 23.1667C12 21.9855 12.3235 20.8953 12.9707 19.896C13.6175 18.8969 14.5077 18.1495 15.641 17.654V19.118C14.9214 19.576 14.3569 20.152 13.9473 20.846C13.538 21.5402 13.3333 22.3138 13.3333 23.1667C13.3333 24.5 13.7863 25.6197 14.6923 26.5257C15.5983 27.4317 16.718 27.8847 18.0513 27.8847C19.2309 27.8847 20.2821 27.4829 21.205 26.6793C22.1281 25.876 22.641 24.8333 22.7437 23.5513H24.077C23.9401 25.2078 23.3029 26.5663 22.1653 27.627C21.0278 28.6877 19.6564 29.218 18.0513 29.218ZM28.0793 25.8437L24.959 21.1667H18V11.8333H19.3333V19.8333H25.7077L29.2103 25.1207L28.0793 25.8437Z" fill="white"/>
</svg>

