<svg width="412" height="800" viewBox="0 0 412 800" fill="none" xmlns="http://www.w3.org/2000/svg">
<rect width="412" height="800" fill="#1E1E1E"/>
<g id="Dashboard" clip-path="url(#clip0_0_1)">
<rect width="412" height="800" fill="#E8E8E8"/>
<g id="Frame 49">
<text id="Select your service" fill="black" xml:space="preserve" style="white-space: pre" font-family="Inter" font-size="20" font-weight="500" letter-spacing="0em"><tspan x="16" y="44.2727">Select your service</tspan></text>
</g>
<g id="Frame 46">
<g id="Card">
<rect x="16" y="71" width="380" height="199" rx="20" fill="url(#paint0_linear_0_1)"/>
<g id="Frame 9">
<g id="Frame 8">
<g id="Frame 24">
<g id="Frame 23">
<text id="Medical Visits" fill="white" xml:space="preserve" style="white-space: pre" font-family="Inter" font-size="20" font-weight="500" letter-spacing="0em"><tspan x="36" y="110.273">Medical Visits</tspan></text>
<g id="Frame 25">
<text id="Clinic Visits" fill="black" fill-opacity="0.8" xml:space="preserve" style="white-space: pre" font-family="Inter" font-size="12" font-weight="500" letter-spacing="0em"><tspan x="36" y="132.364">Clinic</tspan></text>
<line id="Line 4" x1="73.5" y1="123" x2="73.5" y2="133" stroke="black" stroke-opacity="0.8"/>
<text id="Hospital Visits" fill="black" fill-opacity="0.8" xml:space="preserve" style="white-space: pre" font-family="Inter" font-size="12" font-weight="500" letter-spacing="0em"><tspan x="78" y="132.364">Hospital Visits</tspan></text>
</g>
</g>
<g id="Frame 8_2">
<text id="Need help with doctor visits or hospital support? We&#226;&#128;&#153;ll take care of it from start to finish." fill="white" fill-opacity="0.7" xml:space="preserve" style="white-space: pre" font-family="Inter" font-size="14" letter-spacing="0em"><tspan x="36" y="155.091">Need help with doctor visits or hospital </tspan><tspan x="36" y="177.091">support? We&#x2019;ll take care of it from start </tspan><tspan x="36" y="199.091">to finish.</tspan></text>
</g>
</g>
</g>
<g id="Frame 2">
<rect x="36" y="220" width="40" height="30" rx="15" fill="black" fill-opacity="0.2"/>
<g id="right-arrow">
<path id="Vector" d="M57.6875 239.958L56.7917 239.083L60.2917 235.583H49.3333V234.333H60.2917L56.7708 230.812L57.6667 229.938L62.6875 234.958L57.6875 239.958Z" fill="white"/>
</g>
</g>
</g>
<g id="Frame 5">
<rect x="314" y="139.5" width="62" height="62" rx="31" fill="black" fill-opacity="0.2"/>
<g id="medical_services_24dp_E3E3E3_FILL0_wght200_GRAD0_opsz24 1">
<path id="Vector_2" d="M335.154 182.5C334.54 182.5 334.028 182.294 333.617 181.883C333.206 181.472 333 180.96 333 180.346V165.987C333 165.374 333.206 164.861 333.617 164.45C334.028 164.039 334.54 163.833 335.154 163.833H341V161.987C341 161.373 341.206 160.861 341.617 160.45C342.028 160.039 342.54 159.833 343.154 159.833H346.846C347.46 159.833 347.972 160.039 348.383 160.45C348.794 160.861 349 161.373 349 161.987V163.833H354.846C355.46 163.833 355.972 164.039 356.383 164.45C356.794 164.861 357 165.374 357 165.987V180.346C357 180.96 356.794 181.472 356.383 181.883C355.972 182.294 355.46 182.5 354.846 182.5H335.154ZM335.154 181.167H354.846C355.051 181.167 355.239 181.081 355.41 180.91C355.581 180.739 355.667 180.551 355.667 180.346V165.987C355.667 165.782 355.581 165.594 355.41 165.423C355.239 165.252 355.051 165.167 354.846 165.167H335.154C334.949 165.167 334.761 165.252 334.59 165.423C334.419 165.594 334.333 165.782 334.333 165.987V180.346C334.333 180.551 334.419 180.739 334.59 180.91C334.761 181.081 334.949 181.167 335.154 181.167ZM342.333 163.833H347.667V161.987C347.667 161.782 347.581 161.594 347.41 161.423C347.239 161.252 347.051 161.167 346.846 161.167H343.154C342.949 161.167 342.761 161.252 342.59 161.423C342.419 161.594 342.333 161.782 342.333 161.987V163.833ZM344.333 173.833V177.833H345.667V173.833H349.667V172.5H345.667V168.5H344.333V172.5H340.333V173.833H344.333Z" fill="white"/>
</g>
</g>
</g>
<g id="Card_2">
<rect x="16" y="286" width="380" height="199" rx="20" fill="url(#paint1_linear_0_1)"/>
<g id="Frame 9_2">
<g id="Frame 8_3">
<g id="Frame 24_2">
<g id="Frame 23_2">
<text id="Medical Visits_2" fill="white" xml:space="preserve" style="white-space: pre" font-family="Inter" font-size="20" font-weight="500" letter-spacing="0em"><tspan x="36" y="325.273">Travel Assistance</tspan></text>
<g id="Frame 25_2">
<text id="Hospital Visits_2" fill="black" fill-opacity="0.8" xml:space="preserve" style="white-space: pre" font-family="Inter" font-size="12" font-weight="500" letter-spacing="0em"><tspan x="36" y="347.364">Pickup &#38; Drop services</tspan></text>
</g>
</g>
<g id="Frame 8_4">
<text id="Need help with doctor visits or hospital support? We&#226;&#128;&#153;ll take care of it from start to finish._2" fill="white" fill-opacity="0.7" xml:space="preserve" style="white-space: pre" font-family="Inter" font-size="14" letter-spacing="0em"><tspan x="36" y="370.091">Smooth and safe travel for your loved </tspan><tspan x="36" y="392.091">ones whether it&#x2019;s to or from stations, </tspan><tspan x="36" y="414.091">airports, or anywhere else</tspan></text>
</g>
</g>
</g>
<g id="Frame 2_2">
<rect x="36" y="435" width="40" height="30" rx="15" fill="black" fill-opacity="0.2"/>
<g id="right-arrow_2">
<path id="Vector_3" d="M57.6875 454.958L56.7917 454.083L60.2917 450.583H49.3333V449.333H60.2917L56.7708 445.812L57.6667 444.938L62.6875 449.958L57.6875 454.958Z" fill="white"/>
</g>
</g>
</g>
<g id="Frame 5_2">
<rect x="314" y="354.5" width="62" height="62" rx="31" fill="black" fill-opacity="0.2"/>
<g id="travel">
<path id="Vector_4" d="M337.667 377.244C337.053 377.244 336.523 377.021 336.078 376.576C335.633 376.13 335.41 375.601 335.41 374.987C335.41 374.374 335.633 373.844 336.078 373.399C336.523 372.953 337.053 372.731 337.667 372.731C338.28 372.731 338.81 372.953 339.255 373.399C339.7 373.844 339.923 374.374 339.923 374.987C339.923 375.601 339.7 376.13 339.255 376.576C338.81 377.021 338.28 377.244 337.667 377.244ZM335.462 398.167V389.397H333.103V381.551C333.103 380.955 333.312 380.447 333.732 380.027C334.152 379.607 334.66 379.397 335.256 379.397H340.077C340.673 379.397 341.182 379.607 341.601 380.027C342.021 380.447 342.231 380.955 342.231 381.551V384.921C341.121 385.635 340.194 386.635 339.45 387.921C338.706 389.206 338.333 390.621 338.333 392.167C338.333 393.194 338.494 394.153 338.815 395.045C339.137 395.936 339.54 396.676 340.026 397.264V398.167H335.462ZM347.051 398.218C345.395 398.218 343.972 397.624 342.783 396.435C341.594 395.246 341 393.823 341 392.167C341 390.986 341.324 389.895 341.971 388.896C342.618 387.897 343.508 387.15 344.641 386.654V388.118C343.921 388.576 343.357 389.152 342.947 389.846C342.538 390.54 342.333 391.314 342.333 392.167C342.333 393.5 342.786 394.62 343.692 395.526C344.598 396.432 345.718 396.885 347.051 396.885C348.231 396.885 349.282 396.483 350.205 395.679C351.128 394.876 351.641 393.833 351.744 392.551H353.077C352.94 394.208 352.303 395.566 351.165 396.627C350.028 397.688 348.656 398.218 347.051 398.218ZM357.079 394.844L353.959 390.167H347V380.833H348.333V388.833H354.708L358.21 394.121L357.079 394.844Z" fill="white"/>
</g>
</g>
</g>
<g id="Card_3">
<rect x="16" y="501" width="380" height="199" rx="20" fill="url(#paint2_linear_0_1)"/>
<g id="Frame 9_3">
<g id="Frame 8_5">
<g id="Frame 24_3">
<g id="Frame 23_3">
<text id="Medical Visits_3" fill="white" xml:space="preserve" style="white-space: pre" font-family="Inter" font-size="20" font-weight="500" letter-spacing="0em"><tspan x="36" y="540.273">Daily Support</tspan></text>
<g id="Frame 25_3">
<text id="Clinic Visits_2" fill="black" fill-opacity="0.8" xml:space="preserve" style="white-space: pre" font-family="Inter" font-size="12" font-weight="500" letter-spacing="0em"><tspan x="36" y="562.364">Banking</tspan></text>
<line id="Line 4_2" x1="88.5" y1="553" x2="88.5" y2="563" stroke="black" stroke-opacity="0.8"/>
<text id="Hospital Visits_3" fill="black" fill-opacity="0.8" xml:space="preserve" style="white-space: pre" font-family="Inter" font-size="12" font-weight="500" letter-spacing="0em"><tspan x="93" y="562.364">Shopping and Official Paper Work</tspan></text>
</g>
</g>
<g id="Frame 8_6">
<text id="Need help with doctor visits or hospital support? We&#226;&#128;&#153;ll take care of it from start to finish._3" fill="white" fill-opacity="0.7" xml:space="preserve" style="white-space: pre" font-family="Inter" font-size="14" letter-spacing="0em"><tspan x="36" y="585.091">From bank visits to grocery runs - we </tspan><tspan x="36" y="607.091">assist with everyday tasks, paperwork, </tspan><tspan x="36" y="629.091">and errands</tspan></text>
</g>
</g>
</g>
<g id="Frame 2_3">
<rect x="36" y="650" width="40" height="30" rx="15" fill="black" fill-opacity="0.2"/>
<g id="right-arrow_3">
<path id="Vector_5" d="M57.6875 669.958L56.7917 669.083L60.2917 665.583H49.3333V664.333H60.2917L56.7708 660.812L57.6667 659.938L62.6875 664.958L57.6875 669.958Z" fill="white"/>
</g>
</g>
</g>
<g id="Frame 5_3">
<rect x="314" y="569.5" width="62" height="62" rx="31" fill="black" fill-opacity="0.2"/>
<g id="support">
<g id="Group">
<path id="Vector_6" d="M335.933 588.136C335.933 589.736 334.624 591.045 333.024 591.045C331.424 591.045 330.115 589.736 330.115 588.136C330.115 586.536 331.424 585.227 333.024 585.227C334.624 585.227 335.933 586.536 335.933 588.136Z" fill="white"/>
<path id="Vector_7" d="M352.758 589.155C352.758 590.755 351.449 592.064 349.849 592.064C348.249 592.064 346.939 590.755 346.939 589.155C346.939 587.555 348.249 586.245 349.849 586.245C351.449 586.245 352.758 587.506 352.758 589.155Z" fill="white"/>
<path id="Vector_8" d="M360.515 598.755C360.37 598.27 359.594 597.494 358.624 597.106C357.897 596.815 356.733 596.573 355.473 597.252C355.279 597.348 355.133 597.494 354.939 597.639C354.794 597.155 354.455 596.67 353.97 596.427L347.861 592.112C347.327 591.821 346.745 591.676 346.115 591.676H346.067C344.273 591.87 342.867 592.985 341.945 594.876L334.576 592.015C334.091 591.821 333.606 591.676 333.073 591.676C331.085 591.627 329.485 593.227 329.485 595.167V603.797L329.824 613.882C329.873 614.9 330.697 615.724 331.715 615.724H331.764C332.782 615.724 333.655 614.9 333.655 613.882L333.752 610.391L336.176 613.979C336.515 614.464 337.097 614.755 337.727 614.755C338.406 614.755 338.988 614.415 339.327 613.882C339.667 613.348 339.715 612.621 339.424 612.039L335.739 603.748L336.418 597.106L340.83 598.367C340.394 601.13 340.636 603.748 340.636 603.845L340.976 613.882C341.024 614.9 341.849 615.724 342.867 615.724H342.915C343.933 615.724 344.806 614.9 344.806 613.882L344.903 610.391L347.327 613.979C347.667 614.464 348.249 614.755 348.879 614.755C349.558 614.755 350.139 614.415 350.479 613.882C350.818 613.348 350.867 612.621 350.576 612.039L346.891 603.748C347.23 600.888 347.958 598.755 348.976 597.397L351.885 599.433C351.788 599.433 351.691 599.482 351.594 599.482C351.448 599.482 351.255 599.579 351.206 599.773C351.109 599.918 351.158 600.112 351.255 600.258C351.691 600.936 352.321 601.373 353.048 601.567C353.291 601.615 353.582 601.664 353.824 601.664V613.93C353.824 614.852 354.6 615.627 355.521 615.627C356.442 615.627 357.218 614.852 357.218 613.93V600.5C357.218 600.015 357.606 599.627 358.091 599.579L360.03 599.336C360.176 599.336 360.321 599.239 360.37 599.142C360.515 599.045 360.515 598.9 360.515 598.755ZM338.648 612.427C338.794 612.718 338.745 613.058 338.6 613.348C338.406 613.639 338.115 613.785 337.824 613.785C337.533 613.785 337.242 613.639 337.097 613.397L330.891 604.282H335.012L338.648 612.427ZM341.17 597.445L336.176 596.039L335.061 595.555C334.818 595.458 334.527 595.555 334.43 595.797C334.333 596.039 334.43 596.33 334.673 596.427L335.497 596.767L334.915 603.312H330.455V595.167C330.455 593.761 331.618 592.597 333.024 592.597C333.461 592.597 333.897 592.694 334.285 592.936C334.333 592.985 334.43 592.985 334.479 592.985L341.897 595.845C341.945 595.845 341.945 595.894 341.994 595.894C342.285 596.088 342.43 596.476 342.333 596.815C342.285 597.058 342.091 597.252 341.897 597.348C341.655 597.542 341.412 597.542 341.17 597.445ZM349.8 612.427C349.945 612.718 349.897 613.058 349.752 613.348C349.558 613.639 349.267 613.785 348.976 613.785C348.685 613.785 348.394 613.639 348.249 613.397L342.042 604.282H346.164L349.8 612.427ZM348.2 595.603C348.006 595.458 347.667 595.506 347.521 595.7C347.376 595.894 347.424 596.233 347.618 596.379L348.249 596.815C347.133 598.27 346.406 600.403 346.018 603.312H341.606C341.558 602.439 341.509 600.452 341.849 598.415C342.042 598.367 342.188 598.318 342.333 598.27C342.818 598.027 343.158 597.591 343.303 597.106C343.497 596.476 343.255 595.797 342.818 595.312C343.594 593.712 344.709 592.791 346.164 592.597C346.6 592.597 346.988 592.694 347.376 592.936L353.485 597.252C353.533 597.252 353.533 597.3 353.533 597.3C353.921 597.494 354.115 597.882 354.018 598.318C353.97 598.561 353.776 598.755 353.582 598.852C353.388 598.948 353.145 598.997 352.903 598.9L348.2 595.603Z" fill="white"/>
</g>
</g>
</g>
</g>
<g id="Card_4">
<rect x="16" y="716" width="380" height="199" rx="20" fill="url(#paint3_linear_0_1)"/>
<g id="Frame 9_4">
<g id="Frame 8_7">
<g id="Frame 24_4">
<g id="Frame 23_4">
<text id="Medical Visits_4" fill="white" xml:space="preserve" style="white-space: pre" font-family="Inter" font-size="20" font-weight="500" letter-spacing="0em"><tspan x="36" y="755.273">Companionship Care</tspan></text>
<g id="Frame 25_4">
<text id="Clinic Visits_3" fill="black" fill-opacity="0.8" xml:space="preserve" style="white-space: pre" font-family="Inter" font-size="12" font-weight="500" letter-spacing="0em"><tspan x="36" y="777.364">Conversation</tspan></text>
<line id="Line 4_3" x1="118.5" y1="768" x2="118.5" y2="778" stroke="black" stroke-opacity="0.8"/>
<text id="Hospital Visits_4" fill="black" fill-opacity="0.8" xml:space="preserve" style="white-space: pre" font-family="Inter" font-size="12" font-weight="500" letter-spacing="0em"><tspan x="123" y="777.364">Light and Emotional Support</tspan></text>
</g>
</g>
<g id="Frame 8_8">
<text id="Need help with doctor visits or hospital support? We&#226;&#128;&#153;ll take care of it from start to finish._4" fill="white" fill-opacity="0.7" xml:space="preserve" style="white-space: pre" font-family="Inter" font-size="14" letter-spacing="0em"><tspan x="36" y="800.091">Someone to talk to, read with, or just </tspan><tspan x="36" y="822.091">spend time - our companions bring </tspan><tspan x="36" y="844.091">warmth and comfort</tspan></text>
</g>
</g>
</g>
</g>
<g id="Frame 5_4">
<rect x="314" y="784.5" width="62" height="62" rx="31" fill="black" fill-opacity="0.2"/>
</g>
</g>
</g>
</g>
<defs>
<linearGradient id="paint0_linear_0_1" x1="206" y1="71" x2="206" y2="270" gradientUnits="userSpaceOnUse">
<stop stop-color="#0A6F69"/>
<stop offset="1" stop-color="#0A5954"/>
</linearGradient>
<linearGradient id="paint1_linear_0_1" x1="206" y1="286" x2="206" y2="485" gradientUnits="userSpaceOnUse">
<stop stop-color="#5B71B9"/>
<stop offset="1" stop-color="#435591"/>
</linearGradient>
<linearGradient id="paint2_linear_0_1" x1="206" y1="501" x2="206" y2="700" gradientUnits="userSpaceOnUse">
<stop stop-color="#67B173"/>
<stop offset="1" stop-color="#457C4E"/>
</linearGradient>
<linearGradient id="paint3_linear_0_1" x1="206" y1="716" x2="206" y2="915" gradientUnits="userSpaceOnUse">
<stop stop-color="#D4764A"/>
<stop offset="1" stop-color="#AA603D"/>
</linearGradient>
<clipPath id="clip0_0_1">
<rect width="412" height="800" fill="white"/>
</clipPath>
</defs>
</svg>
