<svg width="412" height="792" viewBox="0 0 412 792" fill="none" xmlns="http://www.w3.org/2000/svg">
<rect width="412" height="792" fill="#1E1E1E"/>
<g id="Finish Page" clip-path="url(#clip0_0_1)">
<rect width="412" height="792" fill="#F8F8F8"/>
<text id="You can track the booking status and updates right here in the app." fill="black" fill-opacity="0.6" xml:space="preserve" style="white-space: pre" font-family="Inter" font-size="14" letter-spacing="0em"><tspan x="52.1094" y="558.091">You can track the booking status and updates &#10;</tspan><tspan x="137.148" y="580.091">right here in the app.</tspan></text>
<text id="We&#226;&#128;&#153;re here to make things easier for you" fill="#0A6F69" xml:space="preserve" style="white-space: pre" font-family="Aclonica" font-size="16" letter-spacing="0em"><tspan x="29.4766" y="664.508">We&#x2019;re here to make things easier for you</tspan></text>
<g id="Frame 47">
<g id="7099479_hi five_happy_clap_cheerful_hands_icon 1">
<path id="Vector" d="M216.742 346.375L210.5 322.075C210.487 322.022 210.467 321.972 210.44 321.925C210.23 321.55 209.532 320.759 207.537 321.395C207.125 321.586 206.765 321.875 206.489 322.235C206.191 321.86 205.81 321.56 205.375 321.36C203.46 320.761 202.767 321.555 202.557 321.924C202.53 321.971 202.51 322.021 202.497 322.074L196.257 346.375L189.416 353.216C189.359 353.274 189.314 353.342 189.284 353.417C189.253 353.492 189.238 353.572 189.238 353.652C189.238 353.733 189.255 353.813 189.286 353.888C189.317 353.962 189.363 354.03 189.421 354.087C189.478 354.144 189.546 354.189 189.621 354.219C189.696 354.25 189.776 354.265 189.857 354.265C189.938 354.265 190.018 354.248 190.092 354.217C190.167 354.186 190.234 354.14 190.291 354.083L197.25 347.125C197.327 347.047 197.383 346.95 197.41 346.844L203.66 322.485C203.812 322.336 204.294 322.304 204.926 322.496C205.745 322.894 205.889 323.515 205.889 324.674V333.538C205.733 333.403 205.565 333.283 205.389 333.178L205.224 333.081C204.923 332.904 204.582 332.804 204.233 332.79C203.884 332.777 203.537 332.85 203.223 333.004C202.909 333.157 202.638 333.387 202.434 333.671C202.231 333.955 202.101 334.285 202.056 334.631L200.525 346.568C200.511 346.649 200.513 346.733 200.532 346.813C200.551 346.894 200.587 346.97 200.636 347.036C200.685 347.103 200.747 347.159 200.818 347.201C200.89 347.243 200.969 347.27 201.051 347.281C201.133 347.291 201.216 347.285 201.296 347.263C201.376 347.24 201.45 347.202 201.515 347.15C201.579 347.098 201.632 347.034 201.671 346.961C201.71 346.888 201.734 346.807 201.741 346.725L203.272 334.789C203.291 334.643 203.345 334.504 203.431 334.385C203.516 334.265 203.63 334.169 203.762 334.105C203.894 334.04 204.04 334.009 204.186 334.015C204.333 334.021 204.476 334.064 204.602 334.139L204.769 334.236C205.11 334.437 205.394 334.724 205.591 335.068C205.788 335.412 205.893 335.801 205.894 336.198V347.465C205.894 351.554 204.205 353.305 203.197 353.986C201.745 354.969 200.472 356.181 199.525 357.129L196.565 360.088C196.508 360.144 196.463 360.212 196.432 360.286C196.401 360.361 196.386 360.44 196.386 360.521C196.386 360.601 196.401 360.681 196.432 360.755C196.463 360.829 196.508 360.897 196.565 360.954C196.622 361.011 196.689 361.056 196.764 361.087C196.838 361.117 196.918 361.133 196.998 361.133C197.078 361.133 197.158 361.117 197.232 361.087C197.307 361.056 197.374 361.011 197.431 360.954L200.386 358C201.292 357.091 202.511 355.931 203.877 355C204.667 354.468 205.805 353.401 206.502 351.429C207.197 353.401 208.335 354.468 209.127 355C210.494 355.925 211.712 357.085 212.62 358L215.58 360.959C215.695 361.074 215.851 361.138 216.013 361.138C216.175 361.138 216.331 361.074 216.446 360.959C216.561 360.844 216.626 360.688 216.626 360.526C216.626 360.363 216.561 360.207 216.446 360.093L213.487 357.134C212.539 356.186 211.266 354.974 209.814 353.991C208.807 353.311 207.119 351.56 207.119 347.47V336.2C207.119 335.804 207.223 335.416 207.419 335.072C207.615 334.728 207.896 334.441 208.236 334.239L208.406 334.139C208.533 334.064 208.675 334.022 208.822 334.017C208.969 334.011 209.114 334.042 209.246 334.107C209.378 334.172 209.491 334.268 209.576 334.388C209.661 334.507 209.715 334.646 209.734 334.791L211.265 346.728C211.274 346.808 211.3 346.885 211.34 346.955C211.38 347.026 211.433 347.087 211.497 347.137C211.561 347.186 211.634 347.222 211.712 347.243C211.79 347.264 211.871 347.269 211.951 347.258C212.112 347.236 212.259 347.152 212.358 347.023C212.458 346.894 212.502 346.731 212.481 346.57L210.95 334.634C210.905 334.287 210.775 333.958 210.572 333.674C210.369 333.39 210.098 333.161 209.785 333.007C209.471 332.853 209.124 332.78 208.775 332.793C208.426 332.806 208.086 332.906 207.785 333.083L207.615 333.181C207.438 333.285 207.271 333.405 207.115 333.539V324.676C207.115 323.518 207.259 322.896 207.99 322.531C208.702 322.308 209.187 322.34 209.341 322.488L215.591 346.846C215.618 346.953 215.674 347.05 215.751 347.128L222.71 354.088C222.766 354.148 222.834 354.196 222.909 354.229C222.984 354.263 223.065 354.281 223.148 354.282C223.23 354.284 223.312 354.269 223.388 354.238C223.464 354.207 223.534 354.161 223.592 354.103C223.65 354.045 223.696 353.976 223.727 353.9C223.758 353.823 223.774 353.742 223.772 353.659C223.771 353.577 223.753 353.496 223.72 353.421C223.687 353.345 223.639 353.278 223.579 353.221L216.742 346.375Z" fill="#0A6F69"/>
<path id="Vector_2" d="M227.159 333.535C227.148 333.408 227.097 333.287 227.014 333.19C226.931 333.092 226.82 333.024 226.696 332.993C226.644 332.98 221.476 331.64 220.914 327.269C220.384 323.144 223.031 321.584 223.381 321.394L223.435 321.366C223.58 321.293 223.69 321.165 223.741 321.011C223.792 320.857 223.78 320.688 223.707 320.543C223.634 320.398 223.506 320.288 223.352 320.237C223.197 320.186 223.029 320.198 222.884 320.271L222.835 320.295C222.46 320.484 218.42 322.376 215.597 319.686C212.925 317.144 214.479 313.886 214.546 313.75C214.613 313.615 214.628 313.46 214.588 313.314C214.548 313.169 214.456 313.043 214.328 312.962C214.201 312.88 214.049 312.848 213.9 312.873C213.751 312.897 213.616 312.975 213.521 313.093C213.49 313.129 210.46 316.888 206.491 316.749C202.5 316.829 199.51 313.125 199.479 313.091C199.384 312.973 199.249 312.894 199.099 312.869C198.95 312.845 198.797 312.877 198.669 312.959C198.542 313.041 198.449 313.167 198.409 313.313C198.37 313.459 198.385 313.615 198.454 313.75C198.472 313.784 200.091 317.125 197.402 319.691C194.581 322.381 190.636 320.535 190.174 320.305L190.116 320.276C189.971 320.203 189.803 320.191 189.648 320.242C189.494 320.293 189.366 320.403 189.293 320.548C189.22 320.693 189.208 320.862 189.259 321.016C189.31 321.17 189.42 321.298 189.565 321.371C189.575 321.371 189.59 321.385 189.616 321.396C189.966 321.583 192.616 323.135 192.086 327.271C191.524 331.646 186.356 332.983 186.304 332.995C186.18 333.026 186.069 333.095 185.987 333.192C185.904 333.289 185.854 333.41 185.842 333.537C185.831 333.663 185.86 333.791 185.924 333.901C185.989 334.011 186.086 334.098 186.202 334.15C190.612 336.104 190.56 340.798 190.555 340.996C190.552 341.159 190.613 341.315 190.725 341.433C190.837 341.55 190.991 341.618 191.154 341.621C191.315 341.621 191.469 341.56 191.586 341.448C191.702 341.337 191.771 341.186 191.779 341.025C191.779 340.815 191.854 336.254 187.96 333.711C189.781 332.941 192.824 331.119 193.3 327.426C193.605 325.051 193.006 323.368 192.247 322.238C193.997 322.538 196.316 322.419 198.247 320.58C200.021 318.89 200.282 316.925 200.136 315.448C201.535 316.606 203.739 317.976 206.367 317.976H206.492C209.126 318.03 211.444 316.625 212.867 315.448C212.721 316.924 212.982 318.89 214.756 320.581C216.69 322.421 219.006 322.539 220.756 322.239C219.997 323.364 219.399 325.048 219.704 327.428C220.18 331.12 223.222 332.943 225.044 333.713C221.15 336.255 221.22 340.816 221.225 341.026C221.229 341.186 221.296 341.338 221.41 341.45C221.525 341.561 221.679 341.624 221.839 341.624H221.855C222.017 341.62 222.17 341.551 222.282 341.434C222.394 341.317 222.455 341.161 222.451 340.999C222.451 340.95 222.375 336.116 226.804 334.154C226.92 334.1 227.017 334.012 227.08 333.901C227.144 333.79 227.171 333.662 227.159 333.535Z" fill="#0A6F69"/>
</g>
<g id="Frame 43">
<g id="Frame 42">
<text id="Thank you" fill="#0A6F69" xml:space="preserve" style="white-space: pre" font-family="FS Dillon" font-size="48" letter-spacing="0em"><tspan x="115.141" y="409.92">Thank you</tspan></text>
<text id="Your booking is confirmed." fill="black" xml:space="preserve" style="white-space: pre" font-family="Inter" font-size="20" letter-spacing="0em"><tspan x="80.6113" y="445.273">Your booking is confirmed.</tspan></text>
</g>
<text id="Our care assistant will reach out to you shortly." fill="black" xml:space="preserve" style="white-space: pre" font-family="Inter" font-size="16" font-weight="300" letter-spacing="0em"><tspan x="31.3828" y="482.818">Our care assistant will reach out to you shortly.</tspan></text>
</g>
</g>
<g id="Frame 17" filter="url(#filter0_d_0_1)">
<rect width="412" height="82" transform="translate(0 710)" fill="white"/>
<g id="Frame 45">
<g id="Frame 14">
<rect x="20" y="725" width="173.5" height="52" rx="4" fill="url(#paint0_linear_0_1)"/>
<text id="View booking" fill="white" xml:space="preserve" style="white-space: pre" font-family="Inter" font-size="16" font-weight="600" letter-spacing="0em"><tspan x="54.1875" y="756.818">View booking</tspan></text>
</g>
<g id="Frame 44">
<rect x="218.5" y="725" width="173.5" height="52" rx="4" fill="url(#paint1_linear_0_1)"/>
<text id="Back to home" fill="white" xml:space="preserve" style="white-space: pre" font-family="Inter" font-size="16" font-weight="600" letter-spacing="0em"><tspan x="252.703" y="756.818">Back to home</tspan></text>
</g>
</g>
</g>
</g>
<defs>
<filter id="filter0_d_0_1" x="-25" y="685" width="462" height="132" filterUnits="userSpaceOnUse" color-interpolation-filters="sRGB">
<feFlood flood-opacity="0" result="BackgroundImageFix"/>
<feColorMatrix in="SourceAlpha" type="matrix" values="0 0 0 0 0 0 0 0 0 0 0 0 0 0 0 0 0 0 127 0" result="hardAlpha"/>
<feOffset/>
<feGaussianBlur stdDeviation="12.5"/>
<feComposite in2="hardAlpha" operator="out"/>
<feColorMatrix type="matrix" values="0 0 0 0 0 0 0 0 0 0 0 0 0 0 0 0 0 0 0.08 0"/>
<feBlend mode="normal" in2="BackgroundImageFix" result="effect1_dropShadow_0_1"/>
<feBlend mode="normal" in="SourceGraphic" in2="effect1_dropShadow_0_1" result="shape"/>
</filter>
<linearGradient id="paint0_linear_0_1" x1="106.75" y1="725" x2="106.75" y2="777" gradientUnits="userSpaceOnUse">
<stop stop-color="#0A6F69"/>
<stop offset="1" stop-color="#065D58"/>
</linearGradient>
<linearGradient id="paint1_linear_0_1" x1="305.25" y1="725" x2="305.25" y2="777" gradientUnits="userSpaceOnUse">
<stop stop-color="#0A6F69"/>
<stop offset="1" stop-color="#065D58"/>
</linearGradient>
<clipPath id="clip0_0_1">
<rect width="412" height="792" fill="white"/>
</clipPath>
</defs>
</svg>
