<svg width="412" height="900" viewBox="0 0 412 900" fill="none" xmlns="http://www.w3.org/2000/svg">
<rect width="412" height="900" fill="#1E1E1E"/>
<g id="Moving details" clip-path="url(#clip0_0_1)">
<rect width="412" height="900" fill="#F8F8F8"/>
<g id="Frame 30">
<rect width="412" height="402" fill="white"/>
<g id="Frame 52">
<g id="Icons/arrow_back_24px">
<path id="icon" d="M36 36H23.83L29.42 30.41L28 29L20 37L28 45L29.41 43.59L23.83 38H36V36Z" fill="#1F1F1F"/>
</g>
<text id="Add-ons" fill="black" xml:space="preserve" style="white-space: pre" font-family="Inter" font-size="20" font-weight="500" letter-spacing="0em"><tspan x="45" y="44.2727">Add-ons</tspan></text>
</g>
<g id="wizard">
<g id="Frame 21">
<g id="Frame 16">
<g id="Frame 15">
<rect x="52" y="84.5" width="23" height="23" rx="11.5" stroke="#0A6F69"/>
<g id="check_24dp_E3E3E3_FILL0_wght300_GRAD0_opsz24 1">
<path id="Vector" d="M62.0708 99.298L58.959 96.1862L59.5826 95.5625L62.0708 98.0507L67.4173 92.7042L68.0409 93.3279L62.0708 99.298Z" fill="#0A6F69"/>
</g>
</g>
<text id="Moving details_2" fill="black" fill-opacity="0.3" xml:space="preserve" style="white-space: pre" font-family="Inter" font-size="12" letter-spacing="0em"><tspan x="22.3203" y="129.864">Moving details</tspan></text>
</g>
<g id="Frame 17">
<g id="Frame 15_2">
<rect x="147" y="84.5" width="23" height="23" rx="11.5" stroke="#0A6F69"/>
<g id="Icons/check_24px">
<path id="icon_2" d="M156.75 98.4325L154.317 96L153.489 96.8225L156.75 100.083L163.75 93.0833L162.927 92.2608L156.75 98.4325Z" fill="#0A6F69"/>
</g>
</g>
<text id="Add items" fill="black" fill-opacity="0.3" xml:space="preserve" style="white-space: pre" font-family="Inter" font-size="12" letter-spacing="0em"><tspan x="129.895" y="129.864">Add items</tspan></text>
</g>
<g id="Frame 18">
<g id="Frame 15_3">
<rect x="241.5" y="84" width="24" height="24" rx="12" fill="url(#paint0_linear_0_1)"/>
<g id="dashboard_customize_24dp_E3E3E3_FILL0_wght300_GRAD0_opsz24 1">
<path id="Vector_2" d="M248.396 101.104H252.771V96.7292H248.396V101.104ZM254.229 101.104H258.604V96.7292H254.229V101.104ZM248.396 95.2708H252.771V90.8958H248.396V95.2708ZM255.979 95.2708H256.854V93.5208H258.604V92.6458H256.854V90.8958H255.979V92.6458H254.229V93.5208H255.979V95.2708ZM255.104 100.229V97.6042H257.729V100.229H255.104ZM249.271 100.229V97.6042H251.896V100.229H249.271ZM249.271 94.3958V91.7708H251.896V94.3958H249.271Z" fill="white"/>
</g>
</g>
<text id="Add ons" fill="black" xml:space="preserve" style="white-space: pre" font-family="Inter" font-size="12" font-weight="600" letter-spacing="0em"><tspan x="229.611" y="129.864">Add ons</tspan></text>
</g>
<g id="Frame 19">
<g id="Frame 15_4">
<rect x="337" y="84.5" width="23" height="23" rx="11.5" stroke="black" stroke-opacity="0.3"/>
<g id="article_24dp_E3E3E3_FILL0_wght300_GRAD0_opsz24 1">
<path id="Vector_3" d="M345.729 98.7708H349.521V97.8958H345.729V98.7708ZM345.729 96.4375H351.271V95.5625H345.729V96.4375ZM345.729 94.1042H351.271V93.2292H345.729V94.1042ZM344.596 100.958C344.302 100.958 344.052 100.856 343.848 100.652C343.644 100.448 343.542 100.198 343.542 99.9038V92.0962C343.542 91.8015 343.644 91.5521 343.848 91.3479C344.052 91.1437 344.302 91.0417 344.596 91.0417H352.404C352.699 91.0417 352.948 91.1437 353.152 91.3479C353.356 91.5521 353.458 91.8015 353.458 92.0962V99.9038C353.458 100.198 353.356 100.448 353.152 100.652C352.948 100.856 352.699 100.958 352.404 100.958H344.596ZM344.596 100.083H352.404C352.449 100.083 352.49 100.065 352.527 100.027C352.565 99.9899 352.583 99.9487 352.583 99.9038V92.0962C352.583 92.0513 352.565 92.0101 352.527 91.9728C352.49 91.9354 352.449 91.9167 352.404 91.9167H344.596C344.551 91.9167 344.51 91.9354 344.473 91.9728C344.435 92.0101 344.417 92.0513 344.417 92.0962V99.9038C344.417 99.9487 344.435 99.9899 344.473 100.027C344.51 100.065 344.551 100.083 344.596 100.083Z" fill="black" fill-opacity="0.3"/>
</g>
</g>
<text id="Review" fill="black" fill-opacity="0.3" xml:space="preserve" style="white-space: pre" font-family="Inter" font-size="12" letter-spacing="0em"><tspan x="328.174" y="129.864">Review</tspan></text>
</g>
</g>
<line id="Line 1" x1="83" y1="95.5" x2="140" y2="95.5" stroke="black" stroke-opacity="0.1"/>
<line id="Line 2" x1="177" y1="95.5" x2="235" y2="95.5" stroke="black" stroke-opacity="0.1"/>
<line id="Line 3" x1="272" y1="95.5" x2="330" y2="95.5" stroke="black" stroke-opacity="0.1"/>
</g>
<g id="Frame 24">
<text id="Base price" fill="black" xml:space="preserve" style="white-space: pre" font-family="Inter" font-size="16" font-weight="600" letter-spacing="0em"><tspan x="26" y="180.318">Base price</tspan></text>
<text id="&#226;&#130;&#185;1,550" fill="black" xml:space="preserve" style="white-space: pre" font-family="Inter" font-size="16" font-weight="600" letter-spacing="0em"><tspan x="334" y="180.318">&#x20b9;1,550</tspan></text>
</g>
<line id="Line 1_2" x1="386" y1="204.25" x2="26" y2="204.25" stroke="black" stroke-opacity="0.2" stroke-width="0.5"/>
<line id="Line 2_2" x1="412" y1="145.25" y2="145.25" stroke="black" stroke-opacity="0.2" stroke-width="0.5"/>
<g id="Frame 26">
<g id="Frame 25">
<rect x="25" y="229" width="18" height="18" rx="9" fill="#0A6F69"/>
<g id="check_24dp_E3E3E3_FILL0_wght300_GRAD0_opsz24 1_2">
<path id="Vector_4" d="M32.5708 241.298L29.459 238.186L30.0826 237.562L32.5708 240.051L37.9173 234.704L38.5409 235.328L32.5708 241.298Z" fill="white"/>
</g>
</g>
<text id="Trained and empathetic assistant" fill="black" xml:space="preserve" style="white-space: pre" font-family="Inter" font-size="14" letter-spacing="0em"><tspan x="53" y="243.091">Trained and empathetic assistant</tspan></text>
</g>
<g id="Frame 27">
<g id="Frame 25_2">
<rect x="25" y="265" width="18" height="18" rx="9" fill="#0A6F69"/>
<g id="check_24dp_E3E3E3_FILL0_wght300_GRAD0_opsz24 1_3">
<path id="Vector_5" d="M32.5708 277.298L29.459 274.186L30.0826 273.562L32.5708 276.051L37.9173 270.704L38.5409 271.328L32.5708 277.298Z" fill="white"/>
</g>
</g>
<text id="Transportation to and from clinic/hospital" fill="black" xml:space="preserve" style="white-space: pre" font-family="Inter" font-size="14" letter-spacing="0em"><tspan x="53" y="279.091">Transportation to and from clinic/hospital</tspan></text>
</g>
<g id="Frame 28">
<g id="Frame 25_3">
<rect x="25" y="301" width="18" height="18" rx="9" fill="#0A6F69"/>
<g id="check_24dp_E3E3E3_FILL0_wght300_GRAD0_opsz24 1_4">
<path id="Vector_6" d="M32.5708 313.298L29.459 310.186L30.0826 309.562L32.5708 312.051L37.9173 306.704L38.5409 307.328L32.5708 313.298Z" fill="white"/>
</g>
</g>
<text id="Appointment coordination" fill="black" xml:space="preserve" style="white-space: pre" font-family="Inter" font-size="14" letter-spacing="0em"><tspan x="53" y="315.091">Appointment coordination</tspan></text>
</g>
<g id="Frame 29">
<g id="Frame 25_4">
<rect x="25" y="337" width="18" height="18" rx="9" fill="#0A6F69"/>
<g id="check_24dp_E3E3E3_FILL0_wght300_GRAD0_opsz24 1_5">
<path id="Vector_7" d="M32.5708 349.298L29.459 346.186L30.0826 345.562L32.5708 348.051L37.9173 342.704L38.5409 343.328L32.5708 349.298Z" fill="white"/>
</g>
</g>
<text id="Basic documentation support" fill="black" xml:space="preserve" style="white-space: pre" font-family="Inter" font-size="14" letter-spacing="0em"><tspan x="53" y="351.091">Basic documentation support</tspan></text>
</g>
<text id="View less" fill="#0A6F69" xml:space="preserve" style="white-space: pre" font-family="Inter" font-size="14" font-weight="600" letter-spacing="0em"><tspan x="25" y="386.091">View less</tspan></text>
</g>
<g id="Frame 31" clip-path="url(#clip1_0_1)">
<rect width="412" height="384" transform="translate(0 417)" fill="white"/>
<g id="Frame 30_2">
<text id="Recommended add-ons" fill="black" xml:space="preserve" style="white-space: pre" font-family="Inter" font-size="16" font-weight="600" letter-spacing="0em"><tspan x="26" y="446.318">Recommended add-ons</tspan></text>
</g>
<text id="Boost comfort, safety, and ease with these optional services" fill="black" fill-opacity="0.5" xml:space="preserve" style="white-space: pre" font-family="Inter" font-size="14" letter-spacing="0em"><tspan x="26" y="468.591">Boost comfort, safety, and ease with these optional &#10;</tspan><tspan x="26" y="485.591">services</tspan></text>
<g id="Frame 32">
<rect x="26" y="502" width="77" height="22" rx="11" fill="#0A6F69" fill-opacity="0.15"/>
<text id="Extra ease" fill="#0A6F69" xml:space="preserve" style="white-space: pre" font-family="Inter" font-size="10" font-weight="500" letter-spacing="0em"><tspan x="34" y="516.636">EXTRA EASE</tspan></text>
</g>
<g id="Frame 48">
<g id="Frame 34">
<mask id="path-40-inside-1_0_1" fill="white">
<path d="M26 513H386V622H26V513Z"/>
</mask>
<path d="M386 621H26V623H386V621Z" fill="black" fill-opacity="0.1" mask="url(#path-40-inside-1_0_1)"/>
<g id="Frame 36">
<g id="Frame 33">
<text id="Extra Ease" fill="black" xml:space="preserve" style="white-space: pre" font-family="Inter" font-size="14" font-weight="600" letter-spacing="0em"><tspan x="26" y="541.591">Extra Ease </tspan></text>
<text id="&#226;&#130;&#185;300" fill="black" fill-opacity="0.5" xml:space="preserve" style="white-space: pre" font-family="Inter" font-size="14" font-weight="600" letter-spacing="0em"><tspan x="26" y="562.591">&#x20b9;300</tspan></text>
</g>
<g id="Frame 35">
<rect x="339.5" y="528.5" width="46" height="26" rx="3.5" stroke="#0A6F69"/>
<text id="Add" fill="black" xml:space="preserve" style="white-space: pre" font-family="Inter" font-size="14" letter-spacing="0em"><tspan x="349" y="546.591">Add</tspan></text>
</g>
</g>
<text id="Additional helper for physical support or high-need tasks" fill="black" fill-opacity="0.8" xml:space="preserve" style="white-space: pre" font-family="Inter" font-size="14" letter-spacing="0em"><tspan x="26" y="586.591">Additional helper for physical support or high-need </tspan><tspan x="26" y="603.591">tasks</tspan></text>
</g>
<g id="Frame 35_2">
<mask id="path-47-inside-2_0_1" fill="white">
<path d="M26 622H386V714H26V622Z"/>
</mask>
<path d="M386 713H26V715H386V713Z" fill="black" fill-opacity="0.1" mask="url(#path-47-inside-2_0_1)"/>
<g id="Frame 36_2">
<g id="Frame 33_2">
<text id="Snack &#38; Hydration Kit" fill="black" xml:space="preserve" style="white-space: pre" font-family="Inter" font-size="14" font-weight="600" letter-spacing="0em"><tspan x="26" y="650.591">Snack &#38; Hydration Kit</tspan></text>
<text id="&#226;&#130;&#185;149" fill="black" fill-opacity="0.5" xml:space="preserve" style="white-space: pre" font-family="Inter" font-size="14" font-weight="600" letter-spacing="0em"><tspan x="26" y="671.591">&#x20b9;149</tspan></text>
</g>
<g id="Frame 35_3">
<rect x="313.5" y="637.5" width="72" height="26" rx="3.5" fill="#0A6F69" fill-opacity="0.15"/>
<rect x="313.5" y="637.5" width="72" height="26" rx="3.5" stroke="#0A6F69"/>
<text id="Remove" fill="black" xml:space="preserve" style="white-space: pre" font-family="Inter" font-size="14" letter-spacing="0em"><tspan x="323" y="655.591">Remove</tspan></text>
</g>
</g>
<text id="Healthy refreshments during travel or long visits" fill="black" fill-opacity="0.8" xml:space="preserve" style="white-space: pre" font-family="Inter" font-size="14" letter-spacing="0em"><tspan x="26" y="695.591">Healthy refreshments during travel or long visits</tspan></text>
</g>
<g id="Frame 36_3">
<g id="Frame 36_4">
<g id="Frame 33_3">
<text id="Family Connect Video Update" fill="black" xml:space="preserve" style="white-space: pre" font-family="Inter" font-size="14" font-weight="600" letter-spacing="0em"><tspan x="26" y="742.591">Family Connect Video Update</tspan></text>
<text id="Starts @&#226;&#130;&#185;99" fill="black" fill-opacity="0.5" xml:space="preserve" style="white-space: pre" font-family="Inter" font-size="14" font-weight="600" letter-spacing="0em"><tspan x="26" y="763.591">Starts @&#x20b9;99</tspan></text>
</g>
<g id="Frame 35_4">
<rect x="339.5" y="729.5" width="46" height="26" rx="3.5" stroke="#0A6F69"/>
<text id="Add_2" fill="black" xml:space="preserve" style="white-space: pre" font-family="Inter" font-size="14" letter-spacing="0em"><tspan x="349" y="747.591">Add</tspan></text>
</g>
</g>
<text id="Short video summary sent to family after service" fill="black" fill-opacity="0.8" xml:space="preserve" style="white-space: pre" font-family="Inter" font-size="14" letter-spacing="0em"><tspan x="26" y="787.591">Short video summary sent to family after service</tspan></text>
</g>
</g>
</g>
<g id="Frame 17_2" filter="url(#filter0_d_0_1)">
<rect width="412" height="82" transform="translate(0 818)" fill="white"/>
<g id="Frame 16_2">
<g id="Frame 15_5">
<text id="&#226;&#130;&#185;1,699" fill="black" xml:space="preserve" style="white-space: pre" font-family="Inter" font-size="20" font-weight="600" letter-spacing="0em"><tspan x="20.3516" y="855.273">&#x20b9;1,699</tspan></text>
</g>
<text id="3 items added" fill="black" fill-opacity="0.5" xml:space="preserve" style="white-space: pre" font-family="Inter" font-size="12" letter-spacing="0em"><tspan x="20.3418" y="875.364">3 items added</tspan></text>
</g>
<g id="Frame 14">
<rect x="242" y="833" width="150" height="52" rx="4" fill="url(#paint1_linear_0_1)"/>
<text id="Review booking" fill="white" xml:space="preserve" style="white-space: pre" font-family="Inter" font-size="16" font-weight="600" letter-spacing="0em"><tspan x="255.859" y="864.818">Review booking</tspan></text>
</g>
</g>
</g>
<defs>
<filter id="filter0_d_0_1" x="-25" y="793" width="462" height="132" filterUnits="userSpaceOnUse" color-interpolation-filters="sRGB">
<feFlood flood-opacity="0" result="BackgroundImageFix"/>
<feColorMatrix in="SourceAlpha" type="matrix" values="0 0 0 0 0 0 0 0 0 0 0 0 0 0 0 0 0 0 127 0" result="hardAlpha"/>
<feOffset/>
<feGaussianBlur stdDeviation="12.5"/>
<feComposite in2="hardAlpha" operator="out"/>
<feColorMatrix type="matrix" values="0 0 0 0 0 0 0 0 0 0 0 0 0 0 0 0 0 0 0.08 0"/>
<feBlend mode="normal" in2="BackgroundImageFix" result="effect1_dropShadow_0_1"/>
<feBlend mode="normal" in="SourceGraphic" in2="effect1_dropShadow_0_1" result="shape"/>
</filter>
<linearGradient id="paint0_linear_0_1" x1="253.5" y1="84" x2="253.5" y2="108" gradientUnits="userSpaceOnUse">
<stop stop-color="#0A6F69"/>
<stop offset="1" stop-color="#065D58"/>
</linearGradient>
<linearGradient id="paint1_linear_0_1" x1="317" y1="833" x2="317" y2="885" gradientUnits="userSpaceOnUse">
<stop stop-color="#0A6F69"/>
<stop offset="1" stop-color="#065D58"/>
</linearGradient>
<clipPath id="clip0_0_1">
<rect width="412" height="900" fill="white"/>
</clipPath>
<clipPath id="clip1_0_1">
<rect width="412" height="384" fill="white" transform="translate(0 417)"/>
</clipPath>
</defs>
</svg>
