<svg width="412" height="792" viewBox="0 0 412 792" fill="none" xmlns="http://www.w3.org/2000/svg">
<rect width="412" height="792" fill="#1E1E1E"/>
<g id="Moving details" clip-path="url(#clip0_0_1)">
<rect width="412" height="792" fill="#F8F8F8"/>
<g id="Frame 30">
<rect width="412" height="147" fill="white"/>
<g id="Frame 53">
<g id="Icons/arrow_back_24px">
<path id="icon" d="M36 36H23.83L29.42 30.41L28 29L20 37L28 45L29.41 43.59L23.83 38H36V36Z" fill="#1F1F1F"/>
</g>
<text id="Review" fill="black" xml:space="preserve" style="white-space: pre" font-family="Inter" font-size="20" font-weight="500" letter-spacing="0em"><tspan x="45" y="44.2727">Review</tspan></text>
</g>
<g id="wizard">
<g id="Frame 21">
<g id="Frame 16">
<g id="Frame 15">
<rect x="52" y="84.5" width="23" height="23" rx="11.5" stroke="#0A6F69"/>
<g id="check_24dp_E3E3E3_FILL0_wght300_GRAD0_opsz24 1">
<path id="Vector" d="M62.0708 99.298L58.959 96.1862L59.5826 95.5625L62.0708 98.0507L67.4173 92.7042L68.0409 93.3279L62.0708 99.298Z" fill="#0A6F69"/>
</g>
</g>
<text id="Moving details_2" fill="black" fill-opacity="0.3" xml:space="preserve" style="white-space: pre" font-family="Inter" font-size="12" letter-spacing="0em"><tspan x="22.3203" y="129.864">Moving details</tspan></text>
</g>
<g id="Frame 17">
<g id="Frame 15_2">
<rect x="147" y="84.5" width="23" height="23" rx="11.5" stroke="#0A6F69"/>
<g id="Icons/check_24px">
<path id="icon_2" d="M156.75 98.4325L154.318 96L153.489 96.8225L156.75 100.083L163.75 93.0833L162.928 92.2608L156.75 98.4325Z" fill="#0A6F69"/>
</g>
</g>
<text id="Add items" fill="black" fill-opacity="0.3" xml:space="preserve" style="white-space: pre" font-family="Inter" font-size="12" letter-spacing="0em"><tspan x="129.895" y="129.864">Add items</tspan></text>
</g>
<g id="Frame 18">
<g id="Frame 15_3">
<rect x="242" y="84.5" width="23" height="23" rx="11.5" stroke="#0A6F69"/>
<g id="Icons/check_24px_2">
<path id="icon_3" d="M251.75 98.4325L249.318 96L248.489 96.8225L251.75 100.083L258.75 93.0833L257.928 92.2608L251.75 98.4325Z" fill="#0A6F69"/>
</g>
</g>
<text id="Add ons" fill="black" fill-opacity="0.3" xml:space="preserve" style="white-space: pre" font-family="Inter" font-size="12" letter-spacing="0em"><tspan x="230.08" y="129.864">Add ons</tspan></text>
</g>
<g id="Frame 19">
<g id="Frame 15_4">
<rect x="336.5" y="84" width="24" height="24" rx="12" fill="url(#paint0_linear_0_1)"/>
<g id="article_24dp_E3E3E3_FILL0_wght300_GRAD0_opsz24 1">
<path id="Vector_2" d="M345.729 98.7708H349.521V97.8958H345.729V98.7708ZM345.729 96.4375H351.271V95.5625H345.729V96.4375ZM345.729 94.1042H351.271V93.2292H345.729V94.1042ZM344.596 100.958C344.302 100.958 344.052 100.856 343.848 100.652C343.644 100.448 343.542 100.198 343.542 99.9038V92.0962C343.542 91.8015 343.644 91.5521 343.848 91.3479C344.052 91.1437 344.302 91.0417 344.596 91.0417H352.404C352.699 91.0417 352.948 91.1437 353.152 91.3479C353.356 91.5521 353.458 91.8015 353.458 92.0962V99.9038C353.458 100.198 353.356 100.448 353.152 100.652C352.948 100.856 352.699 100.958 352.404 100.958H344.596ZM344.596 100.083H352.404C352.449 100.083 352.49 100.065 352.527 100.027C352.565 99.9899 352.583 99.9487 352.583 99.9038V92.0962C352.583 92.0513 352.565 92.0101 352.527 91.9728C352.49 91.9354 352.449 91.9167 352.404 91.9167H344.596C344.551 91.9167 344.51 91.9354 344.473 91.9728C344.435 92.0101 344.417 92.0513 344.417 92.0962V99.9038C344.417 99.9487 344.435 99.9899 344.473 100.027C344.51 100.065 344.551 100.083 344.596 100.083Z" fill="white"/>
</g>
</g>
<text id="Review_2" fill="black" xml:space="preserve" style="white-space: pre" font-family="Inter" font-size="12" font-weight="600" letter-spacing="0em"><tspan x="327.6" y="129.864">Review</tspan></text>
</g>
</g>
<line id="Line 1" x1="83" y1="95.5" x2="140" y2="95.5" stroke="black" stroke-opacity="0.1"/>
<line id="Line 2" x1="177" y1="95.5" x2="235" y2="95.5" stroke="black" stroke-opacity="0.1"/>
<line id="Line 3" x1="272" y1="95.5" x2="330" y2="95.5" stroke="black" stroke-opacity="0.1"/>
</g>
</g>
<g id="Frame 19_2">
<rect x="16" y="167" width="380" height="48" rx="2" fill="white"/>
<rect x="16" y="167" width="380" height="48" rx="2" stroke="black" stroke-opacity="0.2" stroke-width="0.5"/>
<g id="confirmation_number_24dp_E3E3E3_FILL1_wght200_GRAD0_opsz24 1">
<path id="Vector_3" d="M40.0008 195.308C40.1426 195.308 40.2612 195.26 40.3567 195.164C40.4522 195.068 40.5 194.949 40.5 194.807C40.5 194.665 40.452 194.547 40.356 194.451C40.26 194.356 40.1411 194.308 39.9993 194.308C39.8574 194.308 39.7388 194.356 39.6433 194.452C39.5478 194.548 39.5 194.666 39.5 194.808C39.5 194.95 39.548 195.069 39.644 195.165C39.74 195.26 39.8589 195.308 40.0008 195.308ZM40.0008 191.5C40.1426 191.5 40.2612 191.452 40.3567 191.356C40.4522 191.26 40.5 191.141 40.5 190.999C40.5 190.857 40.452 190.739 40.356 190.643C40.26 190.548 40.1411 190.5 39.9993 190.5C39.8574 190.5 39.7388 190.548 39.6433 190.644C39.5478 190.74 39.5 190.859 39.5 191.001C39.5 191.143 39.548 191.261 39.644 191.357C39.74 191.452 39.8589 191.5 40.0008 191.5ZM40.0008 187.692C40.1426 187.692 40.2612 187.644 40.3567 187.548C40.4522 187.452 40.5 187.334 40.5 187.192C40.5 187.05 40.452 186.931 40.356 186.835C40.26 186.74 40.1411 186.692 39.9993 186.692C39.8574 186.692 39.7388 186.74 39.6433 186.836C39.5478 186.932 39.5 187.051 39.5 187.193C39.5 187.335 39.548 187.454 39.644 187.549C39.74 187.645 39.8589 187.692 40.0008 187.692ZM47.3845 198H32.6155C32.1712 198 31.7908 197.842 31.4745 197.526C31.1582 197.209 31 196.829 31 196.385V193.808C31.5885 193.59 32.0689 193.227 32.4412 192.72C32.8137 192.213 33 191.64 33 191C33 190.36 32.8137 189.787 32.4412 189.28C32.0689 188.773 31.5885 188.41 31 188.192V185.615C31 185.171 31.1582 184.791 31.4745 184.474C31.7908 184.158 32.1712 184 32.6155 184H47.3845C47.8288 184 48.2092 184.158 48.5255 184.474C48.8418 184.791 49 185.171 49 185.615V188.192C48.4115 188.41 47.9311 188.773 47.5588 189.28C47.1862 189.787 47 190.36 47 191C47 191.64 47.1862 192.213 47.5588 192.72C47.9311 193.227 48.4115 193.59 49 193.808V196.385C49 196.829 48.8418 197.209 48.5255 197.526C48.2092 197.842 47.8288 198 47.3845 198Z" fill="#0A6F69"/>
</g>
<text id="Enter referral or coupon code" fill="black" fill-opacity="0.5" xml:space="preserve" style="white-space: pre" font-family="Inter" font-size="14" letter-spacing="0em"><tspan x="65" y="196.091">Enter referral or coupon code</tspan></text>
<text id="Apply" fill="black" xml:space="preserve" style="white-space: pre" font-family="Inter" font-size="14" letter-spacing="0em"><tspan x="344" y="196.091">Apply</tspan></text>
</g>
<g id="Frame 37">
<rect width="412" height="227" transform="translate(0 235)" fill="white"/>
<text id="Payment summary" fill="black" xml:space="preserve" style="white-space: pre" font-family="Inter" font-size="16" font-weight="600" letter-spacing="0em"><tspan x="16" y="266.318">Payment summary</tspan></text>
<g id="Frame 24">
<path d="M397 328.75H16V329.25H397V328.75Z" fill="black" fill-opacity="0.2"/>
<text id="Quoted amount" fill="black" fill-opacity="0.6" xml:space="preserve" style="white-space: pre" font-family="Inter" font-size="14" letter-spacing="0em"><tspan x="16" y="310.591">Quoted amount</tspan></text>
<text id="&#226;&#130;&#185;1,699" fill="black" fill-opacity="0.6" xml:space="preserve" style="white-space: pre" font-family="Inter" font-size="14" letter-spacing="0em"><tspan x="353" y="310.591">&#x20b9;1,699</tspan></text>
</g>
<g id="Frame 25">
<path d="M397 375.75H16V376.25H397V375.75Z" fill="black" fill-opacity="0.2"/>
<text id="Total amount to be paid" fill="black" xml:space="preserve" style="white-space: pre" font-family="Inter" font-size="14" letter-spacing="0em"><tspan x="16" y="357.591">Total amount to be paid</tspan></text>
<text id="&#226;&#130;&#185;1,699_2" fill="black" xml:space="preserve" style="white-space: pre" font-family="Inter" font-size="14" letter-spacing="0em"><tspan x="353" y="357.591">&#x20b9;1,699</tspan></text>
</g>
<g id="Frame 26">
<g id="Frame 38">
<text id="Booking amount" fill="black" xml:space="preserve" style="white-space: pre" font-family="Inter" font-size="14" font-weight="500" letter-spacing="0em"><tspan x="16" y="404.591">Booking amount</tspan></text>
<text id="An adjustable amount of Rs. 500 needs to be paid for order confirmation" fill="black" fill-opacity="0.5" xml:space="preserve" style="white-space: pre" font-family="Inter" font-size="14" letter-spacing="0em"><tspan x="16" y="426.591">An adjustable amount of Rs. 500 needs to be&#10;</tspan><tspan x="16" y="443.591">paid for order confirmation</tspan></text>
</g>
<text id="&#226;&#130;&#185;500" fill="black" xml:space="preserve" style="white-space: pre" font-family="Inter" font-size="14" font-weight="bold" letter-spacing="0em"><tspan x="360" y="424.091">&#x20b9;500</tspan></text>
</g>
</g>
<g id="By proceeding, you accept the Terms &#38; Conditions">
<text fill="black" xml:space="preserve" style="white-space: pre" font-family="Inter" font-size="14" letter-spacing="0em"><tspan x="16" y="496.591">By proceeding, you accept the </tspan></text>
<text fill="#0A6F69" xml:space="preserve" style="white-space: pre" font-family="Inter" font-size="14" font-weight="bold" letter-spacing="0em"><tspan x="222.199" y="496.591">Terms &#38; Conditions</tspan></text>
</g>
<g id="Frame 39">
<rect width="412" height="37" transform="translate(0 611)" fill="#0A6F69" fill-opacity="0.15"/>
<g id="Pay booking amount of &#226;&#130;&#185;500 to place order">
<text fill="black" xml:space="preserve" style="white-space: pre" font-family="Inter" font-size="14" letter-spacing="0em"><tspan x="15" y="634.591">Pay booking amount of </tspan><tspan x="206.734" y="634.591"> to place order</tspan></text>
<text fill="black" xml:space="preserve" style="white-space: pre" font-family="Inter" font-size="14" font-weight="600" letter-spacing="0em"><tspan x="171.324" y="634.591">&#x20b9;500</tspan></text>
</g>
</g>
<g id="Frame 41">
<g id="Frame 40">
<g id="Icons/today_24px">
<path id="icon_4" fill-rule="evenodd" clip-rule="evenodd" d="M29.25 673H28.5V671.5H27V673H21V671.5H19.5V673H18.75C17.9175 673 17.25 673.675 17.25 674.5V685C17.25 685.825 17.9175 686.5 18.75 686.5H29.25C30.075 686.5 30.75 685.825 30.75 685V674.5C30.75 673.675 30.075 673 29.25 673ZM29.25 685H18.75V676.75H29.25V685ZM19.875 679.75C19.875 678.715 20.715 677.875 21.75 677.875C22.785 677.875 23.625 678.715 23.625 679.75C23.625 680.785 22.785 681.625 21.75 681.625C20.715 681.625 19.875 680.785 19.875 679.75Z" fill="#1F1F1F"/>
</g>
<text id="Visit on 21 Apr" fill="black" xml:space="preserve" style="white-space: pre" font-family="Inter" font-size="14" font-weight="500" letter-spacing="0em"><tspan x="38" y="684.091">Visit on 21 Apr</tspan></text>
</g>
<g id="Icons/mode_edit_24px">
<path id="icon_5" fill-rule="evenodd" clip-rule="evenodd" d="M393.295 672.692L394.307 673.705C394.9 674.29 394.9 675.242 394.307 675.827L384.385 685.75H381.25V682.615L389.05 674.807L391.172 672.692C391.757 672.107 392.71 672.107 393.295 672.692ZM382.75 684.25L383.807 684.295L391.172 676.922L390.115 675.865L382.75 683.23V684.25Z" fill="#1F1F1F"/>
</g>
</g>
<g id="Frame 17_2" filter="url(#filter0_d_0_1)">
<rect width="412" height="82" transform="translate(0 710)" fill="white"/>
<g id="Frame 14">
<rect x="20" y="725" width="372" height="52" rx="4" fill="url(#paint1_linear_0_1)"/>
<text id="Book now" fill="white" xml:space="preserve" style="white-space: pre" font-family="Inter" font-size="16" font-weight="600" letter-spacing="0em"><tspan x="168.156" y="756.818">Book now</tspan></text>
</g>
</g>
</g>
<defs>
<filter id="filter0_d_0_1" x="-25" y="685" width="462" height="132" filterUnits="userSpaceOnUse" color-interpolation-filters="sRGB">
<feFlood flood-opacity="0" result="BackgroundImageFix"/>
<feColorMatrix in="SourceAlpha" type="matrix" values="0 0 0 0 0 0 0 0 0 0 0 0 0 0 0 0 0 0 127 0" result="hardAlpha"/>
<feOffset/>
<feGaussianBlur stdDeviation="12.5"/>
<feComposite in2="hardAlpha" operator="out"/>
<feColorMatrix type="matrix" values="0 0 0 0 0 0 0 0 0 0 0 0 0 0 0 0 0 0 0.08 0"/>
<feBlend mode="normal" in2="BackgroundImageFix" result="effect1_dropShadow_0_1"/>
<feBlend mode="normal" in="SourceGraphic" in2="effect1_dropShadow_0_1" result="shape"/>
</filter>
<linearGradient id="paint0_linear_0_1" x1="348.5" y1="84" x2="348.5" y2="108" gradientUnits="userSpaceOnUse">
<stop stop-color="#0A6F69"/>
<stop offset="1" stop-color="#065D58"/>
</linearGradient>
<linearGradient id="paint1_linear_0_1" x1="206" y1="725" x2="206" y2="777" gradientUnits="userSpaceOnUse">
<stop stop-color="#0A6F69"/>
<stop offset="1" stop-color="#065D58"/>
</linearGradient>
<clipPath id="clip0_0_1">
<rect width="412" height="792" fill="white"/>
</clipPath>
</defs>
</svg>
